<svg width="87" height="55" viewBox="0 0 87 55" fill="none" xmlns="http://www.w3.org/2000/svg">
<g clip-path="url(#clip0_2006_2)">
<rect x="1" y="11" width="40" height="40" rx="4.8" fill="white"/>
<rect x="1" y="11" width="13.3844" height="6.7305" fill="white"/>
<rect x="1.0383" y="11.0383" width="13.3078" height="6.6539" stroke="#5F5F5F" stroke-opacity="0.3" stroke-width="0.0765979"/>
<rect x="1" y="17.6543" width="13.3844" height="6.7305" fill="white"/>
<rect x="1.0383" y="17.6926" width="13.3078" height="6.6539" stroke="#5F5F5F" stroke-opacity="0.3" stroke-width="0.0765979"/>
<rect x="1" y="24.3076" width="13.3844" height="6.7305" fill="white"/>
<rect x="1.0383" y="24.3459" width="13.3078" height="6.6539" stroke="#5F5F5F" stroke-opacity="0.3" stroke-width="0.0765979"/>
<rect x="1" y="30.9619" width="13.3844" height="6.7305" fill="white"/>
<rect x="1.0383" y="31.0002" width="13.3078" height="6.6539" stroke="#5F5F5F" stroke-opacity="0.3" stroke-width="0.0765979"/>
<rect x="1" y="37.6157" width="13.3844" height="6.7305" fill="white"/>
<rect x="1.0383" y="37.654" width="13.3078" height="6.6539" stroke="#5F5F5F" stroke-opacity="0.3" stroke-width="0.0765979"/>
<rect x="1" y="44.2695" width="13.3844" height="6.7305" fill="white"/>
<rect x="1.0383" y="44.3078" width="13.3078" height="6.6539" stroke="#5F5F5F" stroke-opacity="0.3" stroke-width="0.0765979"/>
<rect x="14.3079" y="11" width="13.3844" height="6.7305" fill="white"/>
<rect x="14.3462" y="11.0383" width="13.3078" height="6.6539" stroke="#5F5F5F" stroke-opacity="0.3" stroke-width="0.0765979"/>
<rect x="14.3079" y="17.6543" width="13.3844" height="6.7305" fill="white"/>
<rect x="14.3462" y="17.6926" width="13.3078" height="6.6539" stroke="#5F5F5F" stroke-opacity="0.3" stroke-width="0.0765979"/>
<rect x="14.3079" y="24.3076" width="13.3844" height="6.7305" fill="white"/>
<rect x="14.3462" y="24.3459" width="13.3078" height="6.6539" stroke="#5F5F5F" stroke-opacity="0.3" stroke-width="0.0765979"/>
<rect x="14.3079" y="30.9619" width="13.3844" height="6.7305" fill="white"/>
<rect x="14.3462" y="31.0002" width="13.3078" height="6.6539" stroke="#5F5F5F" stroke-opacity="0.3" stroke-width="0.0765979"/>
<rect x="14.3079" y="37.6157" width="13.3844" height="6.7305" fill="white"/>
<rect x="14.3462" y="37.654" width="13.3078" height="6.6539" stroke="#5F5F5F" stroke-opacity="0.3" stroke-width="0.0765979"/>
<rect x="14.3079" y="44.2695" width="13.3844" height="6.7305" fill="white"/>
<rect x="14.3462" y="44.3078" width="13.3078" height="6.6539" stroke="#5F5F5F" stroke-opacity="0.3" stroke-width="0.0765979"/>
<rect x="27.6157" y="11" width="13.3844" height="6.7305" fill="white"/>
<rect x="27.654" y="11.0383" width="13.3078" height="6.6539" stroke="#5F5F5F" stroke-opacity="0.3" stroke-width="0.0765979"/>
<rect x="27.6157" y="17.6543" width="13.3844" height="6.7305" fill="white"/>
<rect x="27.654" y="17.6926" width="13.3078" height="6.6539" stroke="#5F5F5F" stroke-opacity="0.3" stroke-width="0.0765979"/>
<rect x="27.6157" y="24.3076" width="13.3844" height="6.7305" fill="white"/>
<rect x="27.654" y="24.3459" width="13.3078" height="6.6539" stroke="#5F5F5F" stroke-opacity="0.3" stroke-width="0.0765979"/>
<rect x="27.6157" y="30.9619" width="13.3844" height="6.7305" fill="white"/>
<rect x="27.654" y="31.0002" width="13.3078" height="6.6539" stroke="#5F5F5F" stroke-opacity="0.3" stroke-width="0.0765979"/>
<rect x="27.6157" y="37.6157" width="13.3844" height="6.7305" fill="white"/>
<rect x="27.654" y="37.654" width="13.3078" height="6.6539" stroke="#5F5F5F" stroke-opacity="0.3" stroke-width="0.0765979"/>
<rect x="27.6157" y="44.2695" width="13.3844" height="6.7305" fill="white"/>
<rect x="27.654" y="44.3078" width="13.3078" height="6.6539" stroke="#5F5F5F" stroke-opacity="0.3" stroke-width="0.0765979"/>
<path d="M10.7325 21.6218H13.7744L18.1005 33.6201H15.4305L14.5517 31.0684H9.93827L9.05952 33.6201H6.40636L10.7325 21.6218ZM13.842 28.956L12.2534 24.3256L10.6649 28.956H13.842ZM19.7602 21.6218H22.5993L27.3648 29.9023V21.6218H29.9335V33.6201H27.0606L22.3289 25.6268V33.6201H19.7602V21.6218ZM31.8431 31.0346H34.5807V33.6201H31.8431V31.0346Z" fill="black"/>
<rect x="5.98389" y="38.6201" width="29.4077" height="2.40609" fill="url(#paint0_linear_2006_2)"/>
</g>
<rect x="0.5" y="10.5" width="41" height="41" rx="5.3" stroke="black" stroke-opacity="0.1"/>
<mask id="path-41-outside-1_2006_2" maskUnits="userSpaceOnUse" x="19.962" y="13.5484" width="66.2177" height="39.366" fill="black">
<rect fill="white" x="19.962" y="13.5484" width="66.2177" height="39.366"/>
<path d="M36.8331 32.2618L36.5884 32.3096L36.8247 31.9585C37.6923 30.4171 38.5989 28.902 39.5446 27.4131C40.4902 25.9242 41.4716 24.4453 42.4889 22.9763L42.7091 22.9333C41.7412 24.308 40.786 25.7479 39.8436 27.2531C38.9143 28.7388 37.9814 30.2929 37.045 31.9155L36.8331 32.2618ZM36.5645 35.4392C36.8205 35.7957 37.1605 35.9325 37.5847 35.8497C37.96 35.7764 38.3915 35.5142 38.8793 35.0633C39.3639 34.596 39.8473 34.0358 40.3295 33.3827C40.828 32.7264 41.2793 32.0454 41.6835 31.3398C42.0845 30.6179 42.3939 29.9477 42.6119 29.3292C42.8298 28.7108 42.9069 28.2384 42.8432 27.9121C42.7986 27.6837 42.6621 27.5918 42.4337 27.6364C42.0747 27.7065 41.6711 27.9378 41.2227 28.3303C40.7743 28.7227 40.3157 29.1934 39.8471 29.7422C39.3947 30.2879 38.9618 30.8467 38.5485 31.4186C38.132 31.9742 37.7874 32.4649 37.5149 32.8908C37.2392 33.3003 37.0652 33.5799 36.9928 33.7295L27.6639 50.7445L25.6113 51.552C25.8209 51.3247 26.0767 50.9868 26.3787 50.5383C26.6838 50.106 27.0039 49.6201 27.3389 49.0804C27.677 48.557 28.0136 48.0255 28.3485 47.4859C28.6672 46.9494 28.9596 46.4519 29.2257 45.9934C29.4787 45.5544 29.6677 45.2211 29.7926 44.9935L37.1268 32.2044C37.2943 31.9346 37.5439 31.5217 37.8757 30.9657C38.2238 30.4065 38.6081 29.7725 39.0286 29.0637C39.4622 28.3354 39.9024 27.5973 40.3491 26.8495C40.7927 26.0853 41.2034 25.37 41.5813 24.7033C41.9724 24.0172 42.2749 23.4415 42.4889 22.9763L43.5657 22.766C43.327 22.9312 43.0288 23.2689 42.6711 23.7791C42.3103 24.273 41.9033 24.8776 41.4502 25.5928C41.0102 26.2885 40.5553 27.0379 40.0855 27.841C39.6125 28.6278 39.1574 29.4196 38.7202 30.2164C38.283 31.0131 37.9015 31.7482 37.5757 32.4216L37.4736 32.2891L37.7428 32.2365C38.5568 31.0274 39.2554 30.0949 39.8386 29.439C40.435 28.7636 40.9425 28.2833 41.3611 27.9983C41.7797 27.7133 42.1358 27.5422 42.4295 27.4848C42.6416 27.4434 42.832 27.5078 43.0008 27.6781C43.1826 27.8289 43.3039 28.0593 43.3644 28.3692C43.5078 29.1034 43.4309 29.8806 43.1338 30.7008C42.8531 31.5179 42.4224 32.3049 41.842 33.0619C41.2778 33.8157 40.6245 34.4599 39.8821 34.9944C39.1528 35.5095 38.4047 35.8419 37.6379 35.9917C37.0995 36.0969 36.6858 36.0168 36.3969 35.7514L36.5645 35.4392ZM44.4315 35.1475C44.2357 35.1857 44.0582 35.1442 43.899 35.0229C43.743 34.9178 43.6459 34.7674 43.6076 34.5716C43.4897 33.968 43.7041 33.0708 44.2506 31.88C44.7971 30.6893 45.7402 29.057 47.0796 26.983L48.9151 26.6245C48.7253 26.7802 48.5059 27.0009 48.2568 27.2866C48.0241 27.5692 47.7519 27.9103 47.4404 28.3099C46.5445 29.6197 45.8306 30.6907 45.2987 31.5229C44.7668 32.3551 44.4036 33.0104 44.2091 33.4887C43.9983 33.9703 43.9184 34.3416 43.9694 34.6026C44.0299 34.9126 44.1826 35.0437 44.4273 34.9959C44.7046 34.9417 45.0791 34.6907 45.5505 34.243C46.0057 33.7984 46.4957 33.2284 47.0204 32.5331C47.5452 31.8378 48.0359 31.0984 48.4926 30.3147L48.7241 29.9392L48.9688 29.8914L48.7964 30.1792C48.2772 31.0766 47.7421 31.8925 47.1911 32.6268C46.6369 33.3448 46.1159 33.9293 45.6282 34.3802C45.1404 34.8312 44.7415 35.087 44.4315 35.1475ZM51.7963 19.9135C51.9594 19.8816 52.0538 19.9309 52.0792 20.0615C52.1175 20.2572 52.0348 20.5275 51.8311 20.8721C51.6242 21.2005 51.3718 21.5123 51.0738 21.8076C50.7889 22.0834 50.5241 22.2453 50.2794 22.2931C50.1162 22.3249 50.0219 22.2756 49.9964 22.1451C49.9582 21.9493 50.0425 21.6872 50.2494 21.3589C50.453 21.0142 50.7055 20.7024 51.0067 20.4234C51.3047 20.1281 51.5679 19.9581 51.7963 19.9135ZM49.0033 34.2037C48.4812 34.3057 48.1421 33.957 47.9859 33.1575C47.8808 32.6191 47.934 32.0244 48.1456 31.3733C48.3376 30.7091 48.6405 30.0487 49.0543 29.392C49.4811 28.7158 49.9763 28.0856 50.5396 27.5013C51.1193 26.9138 51.7344 26.4211 52.385 26.023C53.0356 25.6249 53.6708 25.3653 54.2908 25.2443C54.8292 25.1391 55.1382 25.2905 55.2179 25.6983C55.2753 25.992 55.1657 26.4284 54.8892 27.0074C54.6291 27.5833 54.1084 28.4726 53.327 29.6753C52.8115 30.5043 52.28 31.2518 51.7325 31.9176C51.1819 32.5672 50.6676 33.0995 50.1898 33.5147C49.7088 33.9135 49.3133 34.1432 49.0033 34.2037ZM48.9943 34.0276C49.4511 33.9384 50.0579 33.4896 50.8146 32.6813C51.5845 31.8534 52.3732 30.8186 53.1808 29.5769C53.939 28.4294 54.4433 27.5857 54.6935 27.0457C54.9568 26.4861 55.0598 26.0595 55.0024 25.7658C54.9482 25.4885 54.7499 25.3832 54.4072 25.4502C54.0973 25.5107 53.723 25.7193 53.2846 26.0759C52.8592 26.4131 52.4188 26.8463 51.9632 27.3757C51.5045 27.8887 51.0553 28.4507 50.6157 29.0616C50.1761 29.6725 49.7871 30.2821 49.4485 30.8902C49.1068 31.482 48.85 32.0318 48.6782 32.5396C48.4869 33.0343 48.4215 33.4366 48.4821 33.7466C48.5299 33.9913 48.7006 34.085 48.9943 34.0276ZM57.4157 28.4956C56.8046 29.5296 56.0629 30.6315 55.1904 31.8012C54.3148 32.9546 53.2513 34.187 52 35.4985C50.7651 36.8067 49.2933 38.2036 47.5849 39.689C46.4426 40.6913 45.3639 41.6726 44.349 42.633C43.3372 43.6098 42.4545 44.5105 41.701 45.3352C40.9343 46.1793 40.3475 46.9037 39.9405 47.5083C39.5172 48.116 39.331 48.5504 39.382 48.8114C39.4266 49.0398 39.5632 49.1317 39.7916 49.0871C40.4115 48.966 41.1651 48.4886 42.0524 47.6547C42.9428 46.8372 43.9062 45.7428 44.9426 44.3717C45.9659 43.0201 47.0177 41.4681 48.0982 39.7158C49.1624 37.9666 50.1797 36.1081 51.1504 34.1401C51.3214 33.8018 51.4958 33.4374 51.6736 33.047C51.8678 32.6534 52.0931 32.2029 52.3497 31.6955C52.6031 31.1717 52.9058 30.5537 53.2578 29.8413L53.3982 30.1696L52.7864 30.2891L54.8445 27.1686L55.8702 25.266L57.5833 24.9314C57.1019 25.415 56.6022 25.9784 56.0842 26.6216C55.5793 27.2453 55.0874 27.8918 54.6084 28.5612C54.1425 29.2112 53.7322 29.8418 53.3773 30.4531C52.2867 33.0204 51.3135 35.1922 50.4579 36.9684C49.6186 38.7413 48.9115 40.1074 48.3366 41.0666C46.8424 43.4756 45.3618 45.3908 43.8949 46.8121C42.428 48.2334 41.0908 49.062 39.8835 49.2978C39.3941 49.3934 39.1143 49.2618 39.0442 48.9028C38.99 48.6255 39.1861 48.1553 39.6325 47.4922C40.0788 46.8292 40.7066 46.0544 41.5159 45.1681C42.3088 44.2849 43.2193 43.3533 44.2474 42.3734C45.2592 41.3967 46.3116 40.4543 47.4046 39.5464C48.8771 38.3272 50.2325 37.0717 51.4706 35.7797C52.7283 34.5009 53.8309 33.2523 54.7786 32.034C55.7394 30.7963 56.5253 29.6604 57.1363 28.6264L57.3434 28.2557L57.5881 28.2079L57.4157 28.4956ZM58.3709 32.2724C58.8767 32.1736 59.4403 31.8942 60.0618 31.434C60.6964 30.9544 61.3266 30.3655 61.9525 29.6674C62.5914 28.9498 63.1524 28.1797 63.6353 27.357L63.8668 26.9815L64.0871 26.9385L63.9391 27.2215C63.4136 28.0863 62.8182 28.897 62.153 29.6536C61.5041 30.4071 60.8476 31.0349 60.1836 31.5373C59.5163 32.0233 58.9216 32.3173 58.3996 32.4193C57.9917 32.4989 57.6367 32.4158 57.3346 32.17C57.0325 31.9241 56.8321 31.5483 56.7333 31.0425C56.6345 30.5367 56.6794 29.986 56.8679 29.3902C57.0532 28.7781 57.3396 28.1633 57.7271 27.5456C58.1277 26.9084 58.5966 26.3172 59.1337 25.7719C59.6708 25.2266 60.2418 24.7679 60.8466 24.3957C61.4514 24.0235 62.0556 23.7784 62.6593 23.6605C62.9203 23.6096 63.1354 23.6268 63.3045 23.7123C63.4868 23.7784 63.5955 23.9011 63.6305 24.0806C63.6942 24.4069 63.5735 24.7861 63.2684 25.2184C62.9796 25.6474 62.5734 26.0824 62.0498 26.5234C61.5393 26.945 60.9703 27.3271 60.3428 27.6698C59.7284 27.9931 59.1194 28.2137 58.5158 28.3316L58.693 28.0683C59.2414 27.9273 59.7998 27.7082 60.3684 27.4108C60.9502 27.0939 61.4652 26.7392 61.9136 26.3468C62.3752 25.9348 62.7372 25.5338 62.9998 25.1438C63.2787 24.7506 63.391 24.4153 63.3368 24.1379C63.2859 23.8769 63.0972 23.7782 62.7709 23.842C62.3794 23.9185 61.9397 24.1822 61.4519 24.6331C60.9609 25.0678 60.4646 25.6051 59.9629 26.2451C59.4743 26.8656 59.028 27.5286 58.6238 28.2343C58.2196 28.9399 57.9183 29.6085 57.7199 30.2401C57.5019 30.8585 57.4312 31.3635 57.5077 31.7551C57.5937 32.1956 57.8814 32.368 58.3709 32.2724ZM64.1409 31.2979C63.8798 31.3489 63.6633 31.281 63.4914 31.0944C63.3162 30.8915 63.1904 30.5943 63.114 30.2027C63.0088 29.6643 63.062 29.0696 63.2736 28.4185C63.4657 27.7543 63.7686 27.0939 64.1823 26.4372C64.6092 25.761 65.1043 25.1308 65.6677 24.5465C66.2474 23.959 66.8625 23.4662 67.513 23.0682C68.1636 22.6701 68.7989 22.4105 69.4188 22.2894C69.9572 22.1843 70.2663 22.3356 70.3459 22.7435C70.4192 23.1188 70.2685 23.6479 69.8938 24.3308C69.519 25.0137 69.0395 25.8103 68.4551 26.7205C67.9888 27.4552 67.482 28.1555 66.9345 28.8213C66.4034 29.484 65.8955 30.049 65.4109 30.5163C64.9231 30.9672 64.4998 31.2278 64.1409 31.2979ZM64.1319 31.1218C64.4255 31.0644 64.7966 30.8395 65.245 30.4471C65.7065 30.0351 66.1963 29.5075 66.7143 28.8644C67.2454 28.2017 67.7769 27.4542 68.3088 26.6221C68.8932 25.7118 69.3596 24.9348 69.7081 24.2908C70.0566 23.6469 70.1974 23.1536 70.1305 22.811C70.0763 22.5337 69.8779 22.4284 69.5353 22.4954C69.2253 22.5559 68.8511 22.7645 68.4126 23.1211C67.9873 23.4583 67.5468 23.8915 67.0913 24.4209C66.6325 24.9339 66.1834 25.4959 65.7438 26.1068C65.3042 26.7177 64.9151 27.3273 64.5766 27.9354C64.2348 28.5272 63.9781 29.077 63.8063 29.5848C63.6149 30.0795 63.5496 30.4818 63.6101 30.7918C63.6643 31.0691 63.8382 31.1791 64.1319 31.1218ZM71.0509 25.8324C70.6435 26.5217 70.2351 27.0757 69.8257 27.4944C69.4131 27.8968 69.0437 28.1299 68.7174 28.1936C68.1464 28.3052 67.8067 28.0836 67.6983 27.5289C67.6346 27.2026 67.654 26.8685 67.7566 26.5266C67.8724 26.1653 68.088 25.7082 68.4034 25.1554L69.5292 24.9355L68.396 26.8083C68.2154 27.0976 68.1553 27.3973 68.2159 27.7073C68.2701 27.9846 68.4358 28.0962 68.7132 28.042C68.9905 27.9879 69.3061 27.7823 69.6598 27.4252C70.0266 27.0487 70.389 26.563 70.7471 25.968L70.9786 25.5925L71.2233 25.5447L71.0509 25.8324ZM71.2237 25.5446L70.979 25.5924L71.2153 25.2414C71.9051 24.0904 72.5924 23.1431 73.2771 22.3997C73.9618 21.6562 74.5407 21.2382 75.0139 21.1458C75.1933 21.1108 75.3611 21.1457 75.5171 21.2508C75.6699 21.3395 75.767 21.4899 75.8085 21.702C75.8945 22.1425 75.8041 22.6767 75.5372 23.3047C75.2671 23.9164 74.7742 24.7749 74.0585 25.8801L74.3767 25.818L73.9274 26.7695L72.2965 29.4762L70.2898 29.8682C70.9351 29.1832 71.5742 28.4232 72.2072 27.5882C72.837 26.7369 73.4113 25.9049 73.93 25.0922C74.4488 24.2795 74.8498 23.5576 75.133 22.9264C75.4325 22.292 75.56 21.8606 75.5154 21.6322C75.4612 21.3548 75.2954 21.2433 75.0181 21.2974C74.757 21.3484 74.417 21.5588 73.9981 21.9286C73.5791 22.2983 73.1466 22.7724 72.7006 23.3507C72.2515 23.9126 71.8298 24.5285 71.4355 25.1983L71.2237 25.5446ZM77.1117 28.7644C76.8669 28.8122 76.6439 28.7541 76.4425 28.5902C76.2379 28.41 76.1086 28.1812 76.0544 27.9039C75.9683 27.4634 76.0439 26.9828 76.2809 26.4623C76.5148 25.9254 76.8253 25.3905 77.2124 24.8576C77.6126 24.3052 78.0079 23.7707 78.3982 23.2541C78.8048 22.7343 79.1296 22.2728 79.3727 21.8696C79.6289 21.447 79.733 21.1133 79.6852 20.8685C79.6374 20.6238 79.4749 20.5285 79.1975 20.5827C78.9202 20.6369 78.567 20.8668 78.1381 21.2724C77.706 21.6616 77.236 22.1599 76.7279 22.7673C76.2362 23.3715 75.7458 24.0262 75.2569 24.7314C74.7811 25.4172 74.3379 26.0965 73.9274 26.7695L73.6582 26.8221C74.0655 26.1328 74.5218 25.4339 75.0271 24.7255C75.5291 24.0007 76.0326 23.3265 76.5375 22.7029C77.0587 22.076 77.55 21.5566 78.0116 21.1446C78.4731 20.7327 78.867 20.4948 79.1933 20.4311C79.4217 20.3865 79.6497 20.4266 79.8774 20.5515C80.1019 20.6601 80.246 20.8776 80.3097 21.2039C80.3957 21.6444 80.312 22.1265 80.0587 22.6503C79.8021 23.1577 79.4721 23.6795 79.0687 24.2156C78.6816 24.7485 78.2766 25.2764 77.8537 25.7994C77.4439 26.3029 77.1027 26.7675 76.8302 27.1934C76.574 27.616 76.4746 27.9742 76.532 28.2679C76.5543 28.3821 76.6239 28.4786 76.741 28.5573C76.8548 28.6198 76.9769 28.6383 77.1075 28.6128C77.4175 28.5522 77.8245 28.2949 78.3286 27.8407C78.8295 27.3703 79.3587 26.7842 79.9161 26.0825C80.4898 25.3777 81.0065 24.6416 81.4664 23.8743L81.6735 23.5035L81.9182 23.4557L81.7457 23.7435C81.2529 24.6019 80.7064 25.4031 80.1065 26.147C79.5197 26.8713 78.9595 27.4719 78.4259 27.9488C77.9087 28.4224 77.4706 28.6943 77.1117 28.7644Z"/>
</mask>
<path d="M36.8331 32.2618L36.5884 32.3096L36.8247 31.9585C37.6923 30.4171 38.5989 28.902 39.5446 27.4131C40.4902 25.9242 41.4716 24.4453 42.4889 22.9763L42.7091 22.9333C41.7412 24.308 40.786 25.7479 39.8436 27.2531C38.9143 28.7388 37.9814 30.2929 37.045 31.9155L36.8331 32.2618ZM36.5645 35.4392C36.8205 35.7957 37.1605 35.9325 37.5847 35.8497C37.96 35.7764 38.3915 35.5142 38.8793 35.0633C39.3639 34.596 39.8473 34.0358 40.3295 33.3827C40.828 32.7264 41.2793 32.0454 41.6835 31.3398C42.0845 30.6179 42.3939 29.9477 42.6119 29.3292C42.8298 28.7108 42.9069 28.2384 42.8432 27.9121C42.7986 27.6837 42.6621 27.5918 42.4337 27.6364C42.0747 27.7065 41.6711 27.9378 41.2227 28.3303C40.7743 28.7227 40.3157 29.1934 39.8471 29.7422C39.3947 30.2879 38.9618 30.8467 38.5485 31.4186C38.132 31.9742 37.7874 32.4649 37.5149 32.8908C37.2392 33.3003 37.0652 33.5799 36.9928 33.7295L27.6639 50.7445L25.6113 51.552C25.8209 51.3247 26.0767 50.9868 26.3787 50.5383C26.6838 50.106 27.0039 49.6201 27.3389 49.0804C27.677 48.557 28.0136 48.0255 28.3485 47.4859C28.6672 46.9494 28.9596 46.4519 29.2257 45.9934C29.4787 45.5544 29.6677 45.2211 29.7926 44.9935L37.1268 32.2044C37.2943 31.9346 37.5439 31.5217 37.8757 30.9657C38.2238 30.4065 38.6081 29.7725 39.0286 29.0637C39.4622 28.3354 39.9024 27.5973 40.3491 26.8495C40.7927 26.0853 41.2034 25.37 41.5813 24.7033C41.9724 24.0172 42.2749 23.4415 42.4889 22.9763L43.5657 22.766C43.327 22.9312 43.0288 23.2689 42.6711 23.7791C42.3103 24.273 41.9033 24.8776 41.4502 25.5928C41.0102 26.2885 40.5553 27.0379 40.0855 27.841C39.6125 28.6278 39.1574 29.4196 38.7202 30.2164C38.283 31.0131 37.9015 31.7482 37.5757 32.4216L37.4736 32.2891L37.7428 32.2365C38.5568 31.0274 39.2554 30.0949 39.8386 29.439C40.435 28.7636 40.9425 28.2833 41.3611 27.9983C41.7797 27.7133 42.1358 27.5422 42.4295 27.4848C42.6416 27.4434 42.832 27.5078 43.0008 27.6781C43.1826 27.8289 43.3039 28.0593 43.3644 28.3692C43.5078 29.1034 43.4309 29.8806 43.1338 30.7008C42.8531 31.5179 42.4224 32.3049 41.842 33.0619C41.2778 33.8157 40.6245 34.4599 39.8821 34.9944C39.1528 35.5095 38.4047 35.8419 37.6379 35.9917C37.0995 36.0969 36.6858 36.0168 36.3969 35.7514L36.5645 35.4392ZM44.4315 35.1475C44.2357 35.1857 44.0582 35.1442 43.899 35.0229C43.743 34.9178 43.6459 34.7674 43.6076 34.5716C43.4897 33.968 43.7041 33.0708 44.2506 31.88C44.7971 30.6893 45.7402 29.057 47.0796 26.983L48.9151 26.6245C48.7253 26.7802 48.5059 27.0009 48.2568 27.2866C48.0241 27.5692 47.7519 27.9103 47.4404 28.3099C46.5445 29.6197 45.8306 30.6907 45.2987 31.5229C44.7668 32.3551 44.4036 33.0104 44.2091 33.4887C43.9983 33.9703 43.9184 34.3416 43.9694 34.6026C44.0299 34.9126 44.1826 35.0437 44.4273 34.9959C44.7046 34.9417 45.0791 34.6907 45.5505 34.243C46.0057 33.7984 46.4957 33.2284 47.0204 32.5331C47.5452 31.8378 48.0359 31.0984 48.4926 30.3147L48.7241 29.9392L48.9688 29.8914L48.7964 30.1792C48.2772 31.0766 47.7421 31.8925 47.1911 32.6268C46.6369 33.3448 46.1159 33.9293 45.6282 34.3802C45.1404 34.8312 44.7415 35.087 44.4315 35.1475ZM51.7963 19.9135C51.9594 19.8816 52.0538 19.9309 52.0792 20.0615C52.1175 20.2572 52.0348 20.5275 51.8311 20.8721C51.6242 21.2005 51.3718 21.5123 51.0738 21.8076C50.7889 22.0834 50.5241 22.2453 50.2794 22.2931C50.1162 22.3249 50.0219 22.2756 49.9964 22.1451C49.9582 21.9493 50.0425 21.6872 50.2494 21.3589C50.453 21.0142 50.7055 20.7024 51.0067 20.4234C51.3047 20.1281 51.5679 19.9581 51.7963 19.9135ZM49.0033 34.2037C48.4812 34.3057 48.1421 33.957 47.9859 33.1575C47.8808 32.6191 47.934 32.0244 48.1456 31.3733C48.3376 30.7091 48.6405 30.0487 49.0543 29.392C49.4811 28.7158 49.9763 28.0856 50.5396 27.5013C51.1193 26.9138 51.7344 26.4211 52.385 26.023C53.0356 25.6249 53.6708 25.3653 54.2908 25.2443C54.8292 25.1391 55.1382 25.2905 55.2179 25.6983C55.2753 25.992 55.1657 26.4284 54.8892 27.0074C54.6291 27.5833 54.1084 28.4726 53.327 29.6753C52.8115 30.5043 52.28 31.2518 51.7325 31.9176C51.1819 32.5672 50.6676 33.0995 50.1898 33.5147C49.7088 33.9135 49.3133 34.1432 49.0033 34.2037ZM48.9943 34.0276C49.4511 33.9384 50.0579 33.4896 50.8146 32.6813C51.5845 31.8534 52.3732 30.8186 53.1808 29.5769C53.939 28.4294 54.4433 27.5857 54.6935 27.0457C54.9568 26.4861 55.0598 26.0595 55.0024 25.7658C54.9482 25.4885 54.7499 25.3832 54.4072 25.4502C54.0973 25.5107 53.723 25.7193 53.2846 26.0759C52.8592 26.4131 52.4188 26.8463 51.9632 27.3757C51.5045 27.8887 51.0553 28.4507 50.6157 29.0616C50.1761 29.6725 49.7871 30.2821 49.4485 30.8902C49.1068 31.482 48.85 32.0318 48.6782 32.5396C48.4869 33.0343 48.4215 33.4366 48.4821 33.7466C48.5299 33.9913 48.7006 34.085 48.9943 34.0276ZM57.4157 28.4956C56.8046 29.5296 56.0629 30.6315 55.1904 31.8012C54.3148 32.9546 53.2513 34.187 52 35.4985C50.7651 36.8067 49.2933 38.2036 47.5849 39.689C46.4426 40.6913 45.3639 41.6726 44.349 42.633C43.3372 43.6098 42.4545 44.5105 41.701 45.3352C40.9343 46.1793 40.3475 46.9037 39.9405 47.5083C39.5172 48.116 39.331 48.5504 39.382 48.8114C39.4266 49.0398 39.5632 49.1317 39.7916 49.0871C40.4115 48.966 41.1651 48.4886 42.0524 47.6547C42.9428 46.8372 43.9062 45.7428 44.9426 44.3717C45.9659 43.0201 47.0177 41.4681 48.0982 39.7158C49.1624 37.9666 50.1797 36.1081 51.1504 34.1401C51.3214 33.8018 51.4958 33.4374 51.6736 33.047C51.8678 32.6534 52.0931 32.2029 52.3497 31.6955C52.6031 31.1717 52.9058 30.5537 53.2578 29.8413L53.3982 30.1696L52.7864 30.2891L54.8445 27.1686L55.8702 25.266L57.5833 24.9314C57.1019 25.415 56.6022 25.9784 56.0842 26.6216C55.5793 27.2453 55.0874 27.8918 54.6084 28.5612C54.1425 29.2112 53.7322 29.8418 53.3773 30.4531C52.2867 33.0204 51.3135 35.1922 50.4579 36.9684C49.6186 38.7413 48.9115 40.1074 48.3366 41.0666C46.8424 43.4756 45.3618 45.3908 43.8949 46.8121C42.428 48.2334 41.0908 49.062 39.8835 49.2978C39.3941 49.3934 39.1143 49.2618 39.0442 48.9028C38.99 48.6255 39.1861 48.1553 39.6325 47.4922C40.0788 46.8292 40.7066 46.0544 41.5159 45.1681C42.3088 44.2849 43.2193 43.3533 44.2474 42.3734C45.2592 41.3967 46.3116 40.4543 47.4046 39.5464C48.8771 38.3272 50.2325 37.0717 51.4706 35.7797C52.7283 34.5009 53.8309 33.2523 54.7786 32.034C55.7394 30.7963 56.5253 29.6604 57.1363 28.6264L57.3434 28.2557L57.5881 28.2079L57.4157 28.4956ZM58.3709 32.2724C58.8767 32.1736 59.4403 31.8942 60.0618 31.434C60.6964 30.9544 61.3266 30.3655 61.9525 29.6674C62.5914 28.9498 63.1524 28.1797 63.6353 27.357L63.8668 26.9815L64.0871 26.9385L63.9391 27.2215C63.4136 28.0863 62.8182 28.897 62.153 29.6536C61.5041 30.4071 60.8476 31.0349 60.1836 31.5373C59.5163 32.0233 58.9216 32.3173 58.3996 32.4193C57.9917 32.4989 57.6367 32.4158 57.3346 32.17C57.0325 31.9241 56.8321 31.5483 56.7333 31.0425C56.6345 30.5367 56.6794 29.986 56.8679 29.3902C57.0532 28.7781 57.3396 28.1633 57.7271 27.5456C58.1277 26.9084 58.5966 26.3172 59.1337 25.7719C59.6708 25.2266 60.2418 24.7679 60.8466 24.3957C61.4514 24.0235 62.0556 23.7784 62.6593 23.6605C62.9203 23.6096 63.1354 23.6268 63.3045 23.7123C63.4868 23.7784 63.5955 23.9011 63.6305 24.0806C63.6942 24.4069 63.5735 24.7861 63.2684 25.2184C62.9796 25.6474 62.5734 26.0824 62.0498 26.5234C61.5393 26.945 60.9703 27.3271 60.3428 27.6698C59.7284 27.9931 59.1194 28.2137 58.5158 28.3316L58.693 28.0683C59.2414 27.9273 59.7998 27.7082 60.3684 27.4108C60.9502 27.0939 61.4652 26.7392 61.9136 26.3468C62.3752 25.9348 62.7372 25.5338 62.9998 25.1438C63.2787 24.7506 63.391 24.4153 63.3368 24.1379C63.2859 23.8769 63.0972 23.7782 62.7709 23.842C62.3794 23.9185 61.9397 24.1822 61.4519 24.6331C60.9609 25.0678 60.4646 25.6051 59.9629 26.2451C59.4743 26.8656 59.028 27.5286 58.6238 28.2343C58.2196 28.9399 57.9183 29.6085 57.7199 30.2401C57.5019 30.8585 57.4312 31.3635 57.5077 31.7551C57.5937 32.1956 57.8814 32.368 58.3709 32.2724ZM64.1409 31.2979C63.8798 31.3489 63.6633 31.281 63.4914 31.0944C63.3162 30.8915 63.1904 30.5943 63.114 30.2027C63.0088 29.6643 63.062 29.0696 63.2736 28.4185C63.4657 27.7543 63.7686 27.0939 64.1823 26.4372C64.6092 25.761 65.1043 25.1308 65.6677 24.5465C66.2474 23.959 66.8625 23.4662 67.513 23.0682C68.1636 22.6701 68.7989 22.4105 69.4188 22.2894C69.9572 22.1843 70.2663 22.3356 70.3459 22.7435C70.4192 23.1188 70.2685 23.6479 69.8938 24.3308C69.519 25.0137 69.0395 25.8103 68.4551 26.7205C67.9888 27.4552 67.482 28.1555 66.9345 28.8213C66.4034 29.484 65.8955 30.049 65.4109 30.5163C64.9231 30.9672 64.4998 31.2278 64.1409 31.2979ZM64.1319 31.1218C64.4255 31.0644 64.7966 30.8395 65.245 30.4471C65.7065 30.0351 66.1963 29.5075 66.7143 28.8644C67.2454 28.2017 67.7769 27.4542 68.3088 26.6221C68.8932 25.7118 69.3596 24.9348 69.7081 24.2908C70.0566 23.6469 70.1974 23.1536 70.1305 22.811C70.0763 22.5337 69.8779 22.4284 69.5353 22.4954C69.2253 22.5559 68.8511 22.7645 68.4126 23.1211C67.9873 23.4583 67.5468 23.8915 67.0913 24.4209C66.6325 24.9339 66.1834 25.4959 65.7438 26.1068C65.3042 26.7177 64.9151 27.3273 64.5766 27.9354C64.2348 28.5272 63.9781 29.077 63.8063 29.5848C63.6149 30.0795 63.5496 30.4818 63.6101 30.7918C63.6643 31.0691 63.8382 31.1791 64.1319 31.1218ZM71.0509 25.8324C70.6435 26.5217 70.2351 27.0757 69.8257 27.4944C69.4131 27.8968 69.0437 28.1299 68.7174 28.1936C68.1464 28.3052 67.8067 28.0836 67.6983 27.5289C67.6346 27.2026 67.654 26.8685 67.7566 26.5266C67.8724 26.1653 68.088 25.7082 68.4034 25.1554L69.5292 24.9355L68.396 26.8083C68.2154 27.0976 68.1553 27.3973 68.2159 27.7073C68.2701 27.9846 68.4358 28.0962 68.7132 28.042C68.9905 27.9879 69.3061 27.7823 69.6598 27.4252C70.0266 27.0487 70.389 26.563 70.7471 25.968L70.9786 25.5925L71.2233 25.5447L71.0509 25.8324ZM71.2237 25.5446L70.979 25.5924L71.2153 25.2414C71.9051 24.0904 72.5924 23.1431 73.2771 22.3997C73.9618 21.6562 74.5407 21.2382 75.0139 21.1458C75.1933 21.1108 75.3611 21.1457 75.5171 21.2508C75.6699 21.3395 75.767 21.4899 75.8085 21.702C75.8945 22.1425 75.8041 22.6767 75.5372 23.3047C75.2671 23.9164 74.7742 24.7749 74.0585 25.8801L74.3767 25.818L73.9274 26.7695L72.2965 29.4762L70.2898 29.8682C70.9351 29.1832 71.5742 28.4232 72.2072 27.5882C72.837 26.7369 73.4113 25.9049 73.93 25.0922C74.4488 24.2795 74.8498 23.5576 75.133 22.9264C75.4325 22.292 75.56 21.8606 75.5154 21.6322C75.4612 21.3548 75.2954 21.2433 75.0181 21.2974C74.757 21.3484 74.417 21.5588 73.9981 21.9286C73.5791 22.2983 73.1466 22.7724 72.7006 23.3507C72.2515 23.9126 71.8298 24.5285 71.4355 25.1983L71.2237 25.5446ZM77.1117 28.7644C76.8669 28.8122 76.6439 28.7541 76.4425 28.5902C76.2379 28.41 76.1086 28.1812 76.0544 27.9039C75.9683 27.4634 76.0439 26.9828 76.2809 26.4623C76.5148 25.9254 76.8253 25.3905 77.2124 24.8576C77.6126 24.3052 78.0079 23.7707 78.3982 23.2541C78.8048 22.7343 79.1296 22.2728 79.3727 21.8696C79.6289 21.447 79.733 21.1133 79.6852 20.8685C79.6374 20.6238 79.4749 20.5285 79.1975 20.5827C78.9202 20.6369 78.567 20.8668 78.1381 21.2724C77.706 21.6616 77.236 22.1599 76.7279 22.7673C76.2362 23.3715 75.7458 24.0262 75.2569 24.7314C74.7811 25.4172 74.3379 26.0965 73.9274 26.7695L73.6582 26.8221C74.0655 26.1328 74.5218 25.4339 75.0271 24.7255C75.5291 24.0007 76.0326 23.3265 76.5375 22.7029C77.0587 22.076 77.55 21.5566 78.0116 21.1446C78.4731 20.7327 78.867 20.4948 79.1933 20.4311C79.4217 20.3865 79.6497 20.4266 79.8774 20.5515C80.1019 20.6601 80.246 20.8776 80.3097 21.2039C80.3957 21.6444 80.312 22.1265 80.0587 22.6503C79.8021 23.1577 79.4721 23.6795 79.0687 24.2156C78.6816 24.7485 78.2766 25.2764 77.8537 25.7994C77.4439 26.3029 77.1027 26.7675 76.8302 27.1934C76.574 27.616 76.4746 27.9742 76.532 28.2679C76.5543 28.3821 76.6239 28.4786 76.741 28.5573C76.8548 28.6198 76.9769 28.6383 77.1075 28.6128C77.4175 28.5522 77.8245 28.2949 78.3286 27.8407C78.8295 27.3703 79.3587 26.7842 79.9161 26.0825C80.4898 25.3777 81.0065 24.6416 81.4664 23.8743L81.6735 23.5035L81.9182 23.4557L81.7457 23.7435C81.2529 24.6019 80.7064 25.4031 80.1065 26.147C79.5197 26.8713 78.9595 27.4719 78.4259 27.9488C77.9087 28.4224 77.4706 28.6943 77.1117 28.7644Z" fill="black"/>
<path d="M36.8331 32.2618L36.8523 32.3599L36.8955 32.3515L36.9184 32.314L36.8331 32.2618ZM36.5884 32.3096L36.5054 32.2537L36.3706 32.454L36.6076 32.4077L36.5884 32.3096ZM36.8247 31.9585L36.9079 32.0146L36.9119 32.0076L36.8247 31.9585ZM39.5446 27.4131L39.629 27.4667L39.5446 27.4131ZM42.4889 22.9763L42.4697 22.8782L42.4298 22.8859L42.4067 22.9194L42.4889 22.9763ZM42.7091 22.9333L42.7909 22.9909L42.9341 22.7874L42.69 22.8351L42.7091 22.9333ZM39.8436 27.2531L39.7588 27.2L39.7588 27.2001L39.8436 27.2531ZM37.045 31.9155L37.1303 31.9677L37.1316 31.9655L37.045 31.9155ZM36.5645 35.4392L36.6458 35.3809L36.5523 35.2506L36.4764 35.3919L36.5645 35.4392ZM38.8793 35.0633L38.9472 35.1367L38.9487 35.1353L38.8793 35.0633ZM40.3295 33.3827L40.2498 33.3222L40.249 33.3233L40.3295 33.3827ZM41.6835 31.3398L41.7702 31.3895L41.7709 31.3884L41.6835 31.3398ZM42.6119 29.3292L42.7062 29.3625L42.6119 29.3292ZM39.8471 29.7422L39.771 29.6773L39.7701 29.6784L39.8471 29.7422ZM38.5485 31.4186L38.6285 31.4786L38.6295 31.4772L38.5485 31.4186ZM37.5149 32.8908L37.5979 32.9466L37.5992 32.9447L37.5149 32.8908ZM36.9928 33.7295L37.0806 33.7777L37.0828 33.7731L36.9928 33.7295ZM27.6639 50.7445L27.7005 50.8376L27.7342 50.8243L27.7516 50.7926L27.6639 50.7445ZM25.6113 51.552L25.5378 51.4841L25.6479 51.645L25.6113 51.552ZM26.3787 50.5382L26.297 50.4806L26.2957 50.4824L26.3787 50.5382ZM27.3389 49.0804L27.2548 49.0261L27.2539 49.0277L27.3389 49.0804ZM28.3485 47.4859L28.4335 47.5386L28.4345 47.5369L28.3485 47.4859ZM29.2257 45.9934L29.3122 46.0436L29.3123 46.0433L29.2257 45.9934ZM29.7926 44.9935L29.7058 44.9437L29.7049 44.9454L29.7926 44.9935ZM37.1268 32.2044L37.0418 32.1516L37.04 32.1547L37.1268 32.2044ZM37.8757 30.9657L37.7908 30.9128L37.7898 30.9144L37.8757 30.9657ZM39.0286 29.0637L38.9426 29.0125L38.9426 29.0127L39.0286 29.0637ZM40.3491 26.8495L40.435 26.9008L40.4356 26.8997L40.3491 26.8495ZM41.5813 24.7033L41.4944 24.6538L41.4943 24.654L41.5813 24.7033ZM42.4889 22.9763L42.4697 22.8782L42.4195 22.888L42.398 22.9345L42.4889 22.9763ZM43.5657 22.766L43.6226 22.8482L43.5465 22.6678L43.5657 22.766ZM42.6711 23.7791L42.7519 23.8381L42.753 23.8365L42.6711 23.7791ZM41.4502 25.5928L41.3657 25.5392L41.3657 25.5393L41.4502 25.5928ZM40.0855 27.841L40.1712 27.8925L40.1718 27.8915L40.0855 27.841ZM38.7202 30.2164L38.6325 30.1683L38.7202 30.2164ZM37.5757 32.4216L37.4965 32.4826L37.5953 32.6108L37.6657 32.4651L37.5757 32.4216ZM37.4736 32.2891L37.4544 32.191L37.2956 32.222L37.3944 32.3501L37.4736 32.2891ZM37.7428 32.2365L37.762 32.3347L37.8026 32.3267L37.8258 32.2924L37.7428 32.2365ZM39.8386 29.439L39.9134 29.5054L39.9136 29.5052L39.8386 29.439ZM41.3611 27.9983L41.4174 28.081L41.3611 27.9983ZM43.0008 27.6781L42.9294 27.7488L42.9369 27.7551L43.0008 27.6781ZM43.1338 30.7008L43.0398 30.6668L43.0393 30.6683L43.1338 30.7008ZM41.842 33.0619L41.7626 33.001L41.7619 33.0019L41.842 33.0619ZM39.8821 34.9944L39.9398 35.0761L39.9405 35.0756L39.8821 34.9944ZM36.3969 35.7514L36.3088 35.7041L36.272 35.7725L36.3292 35.8251L36.3969 35.7514ZM36.814 32.1636L36.5692 32.2114L36.6076 32.4077L36.8523 32.3599L36.814 32.1636ZM36.6714 32.3654L36.9077 32.0144L36.7418 31.9027L36.5054 32.2537L36.6714 32.3654ZM36.9119 32.0076C37.7786 30.4677 38.6843 28.9541 39.629 27.4667L39.4602 27.3595C38.5136 28.8499 37.6061 30.3665 36.7376 31.9095L36.9119 32.0076ZM39.629 27.4667C40.5739 25.979 41.5546 24.5012 42.5711 23.0332L42.4067 22.9194C41.3887 24.3894 40.4065 25.8695 39.4602 27.3595L39.629 27.4667ZM42.5081 23.0744L42.7283 23.0314L42.69 22.8351L42.4697 22.8782L42.5081 23.0744ZM42.6274 22.8757C41.6584 24.2519 40.7022 25.6934 39.7588 27.2L39.9284 27.3062C40.8699 25.8024 41.8241 24.364 42.7909 22.9909L42.6274 22.8757ZM39.7588 27.2001C38.8288 28.6868 37.8954 30.242 36.9584 31.8655L37.1316 31.9655C38.0675 30.3439 38.9997 28.7907 39.9284 27.3061L39.7588 27.2001ZM36.9597 31.8633L36.7478 32.2096L36.9184 32.314L37.1303 31.9677L36.9597 31.8633ZM36.4833 35.4975C36.6201 35.6881 36.7834 35.8252 36.9742 35.902C37.1652 35.9788 37.3763 35.9923 37.6039 35.9478L37.5656 35.7515C37.369 35.7899 37.198 35.7764 37.0489 35.7164C36.8996 35.6564 36.7649 35.5468 36.6458 35.3809L36.4833 35.4975ZM37.6039 35.9478C38.0063 35.8692 38.4546 35.5921 38.9472 35.1367L38.8114 34.9899C38.3284 35.4364 37.9136 35.6835 37.5656 35.7515L37.6039 35.9478ZM38.9487 35.1353C39.438 34.6634 39.9251 34.0988 40.4099 33.4421L40.249 33.3233C39.7695 33.9728 39.2897 34.5286 38.8099 34.9913L38.9487 35.1353ZM40.4091 33.4432C40.9102 32.7835 41.3639 32.0989 41.7702 31.3895L41.5967 31.2901C41.1947 31.9919 40.7457 32.6693 40.2498 33.3222L40.4091 33.4432ZM41.7709 31.3884C42.1739 30.6627 42.486 29.9873 42.7062 29.3625L42.5176 29.296C42.3019 29.908 41.995 30.573 41.596 31.2912L41.7709 31.3884ZM42.7062 29.3625C42.9253 28.7407 43.0105 28.2468 42.9414 27.8929L42.7451 27.9313C42.8034 28.23 42.7343 28.6809 42.5176 29.296L42.7062 29.3625ZM42.9414 27.8929C42.9161 27.7636 42.8612 27.6549 42.7632 27.5889C42.6652 27.5229 42.5438 27.513 42.4145 27.5383L42.4528 27.7346C42.5519 27.7152 42.613 27.7289 42.6515 27.7548C42.69 27.7807 42.7257 27.8322 42.7451 27.9313L42.9414 27.8929ZM42.4145 27.5383C42.0306 27.6132 41.611 27.8575 41.1568 28.255L41.2885 28.4055C41.7311 28.0181 42.1189 27.7998 42.4528 27.7346L42.4145 27.5383ZM41.1568 28.255C40.7041 28.6512 40.2422 29.1255 39.771 29.6773L39.9231 29.8072C40.3893 29.2612 40.8444 28.7942 41.2885 28.4055L41.1568 28.255ZM39.7701 29.6784C39.3163 30.2258 38.8821 30.7863 38.4674 31.36L38.6295 31.4772C39.0416 30.9071 39.4731 30.35 39.924 29.806L39.7701 29.6784ZM38.4685 31.3586C38.051 31.9155 37.7049 32.4083 37.4307 32.8369L37.5992 32.9447C37.8699 32.5215 38.2129 32.0329 38.6285 31.4786L38.4685 31.3586ZM37.432 32.8349C37.1569 33.2435 36.9788 33.5289 36.9028 33.686L37.0828 33.7731C37.1516 33.6309 37.3215 33.3571 37.5979 32.9466L37.432 32.8349ZM36.9051 33.6815L27.5762 50.6965L27.7516 50.7926L37.0805 33.7776L36.9051 33.6815ZM27.6273 50.6515L25.5747 51.4589L25.6479 51.645L27.7005 50.8376L27.6273 50.6515ZM25.6848 51.6198C25.8995 51.387 26.1586 51.0442 26.4617 50.5941L26.2957 50.4824C25.9949 50.9293 25.7424 51.2624 25.5378 51.4841L25.6848 51.6198ZM26.4604 50.5959C26.7669 50.1618 27.088 49.6742 27.4238 49.1331L27.2539 49.0277C26.9198 49.566 26.6008 50.0502 26.297 50.4806L26.4604 50.5959ZM27.4228 49.1347C27.7613 48.6108 28.0982 48.0788 28.4335 47.5386L28.2636 47.4331C27.9289 47.9723 27.5927 48.5033 27.2549 49.0261L27.4228 49.1347ZM28.4345 47.5369C28.7533 47.0002 29.0459 46.5024 29.3122 46.0436L29.1392 45.9432C28.8733 46.4014 28.5811 46.8985 28.2626 47.4348L28.4345 47.5369ZM29.3123 46.0433C29.5654 45.6042 29.7548 45.2702 29.8803 45.0416L29.7049 44.9454C29.5805 45.1721 29.392 45.5046 29.1391 45.9435L29.3123 46.0433ZM29.8793 45.0432L37.2135 32.2542L37.04 32.1547L29.7058 44.9437L29.8793 45.0432ZM37.2118 32.2571C37.3797 31.9865 37.6297 31.573 37.9616 31.0169L37.7898 30.9144C37.4581 31.4703 37.2088 31.8826 37.0418 32.1517L37.2118 32.2571ZM37.9606 31.0185C38.3091 30.4586 38.6938 29.824 39.1146 29.1147L38.9426 29.0127C38.5223 29.721 38.1384 30.3544 37.7908 30.9128L37.9606 31.0185ZM39.1145 29.1148C39.5481 28.3866 39.9882 27.6485 40.435 26.9008L40.2633 26.7982C39.8165 27.5461 39.3763 28.2842 38.9426 29.0125L39.1145 29.1148ZM40.4356 26.8997C40.8793 26.1353 41.2902 25.4196 41.6683 24.7527L41.4943 24.654C41.1166 25.3203 40.706 26.0354 40.2626 26.7993L40.4356 26.8997ZM41.6682 24.7529C42.06 24.0654 42.3641 23.487 42.5797 23.0181L42.398 22.9345C42.1857 23.3961 41.8847 23.969 41.4944 24.6538L41.6682 24.7529ZM42.5081 23.0744L43.5849 22.8641L43.5465 22.6678L42.4697 22.8782L42.5081 23.0744ZM43.5088 22.6837C43.2544 22.8598 42.9477 23.2103 42.5892 23.7217L42.753 23.8365C43.1098 23.3274 43.3995 23.0026 43.6226 22.8482L43.5088 22.6837ZM42.5904 23.7201C42.2278 24.2163 41.8196 24.8228 41.3657 25.5392L41.5346 25.6463C41.987 24.9323 42.3927 24.3297 42.7519 23.8381L42.5904 23.7201ZM41.3657 25.5393C40.925 26.2361 40.4695 26.9865 39.9991 27.7905L40.1718 27.8915C40.6411 27.0892 41.0954 26.3408 41.5347 25.6462L41.3657 25.5393ZM39.9998 27.7895C39.5261 28.5774 39.0703 29.3703 38.6325 30.1683L38.8078 30.2645C39.2444 29.4689 39.6988 28.6782 40.1712 27.8925L39.9998 27.7895ZM38.6325 30.1683C38.1947 30.9662 37.8124 31.7028 37.4857 32.378L37.6657 32.4651C37.9906 31.7936 38.3713 31.0601 38.8078 30.2645L38.6325 30.1683ZM37.6549 32.3606L37.5528 32.2281L37.3944 32.3501L37.4965 32.4826L37.6549 32.3606ZM37.4928 32.3872L37.762 32.3347L37.7236 32.1384L37.4544 32.191L37.4928 32.3872ZM37.8258 32.2924C38.6386 31.0849 39.3344 30.1565 39.9134 29.5054L39.7639 29.3725C39.1764 30.0333 38.4749 30.9699 37.6599 32.1807L37.8258 32.2924ZM39.9136 29.5052C40.508 28.832 41.009 28.359 41.4174 28.081L41.3048 27.9157C40.876 28.2077 40.362 28.6952 39.7637 29.3728L39.9136 29.5052ZM41.4174 28.081C41.8315 27.7991 42.1744 27.6365 42.4486 27.5829L42.4103 27.3866C42.0972 27.4478 41.7279 27.6276 41.3048 27.9157L41.4174 28.081ZM42.4486 27.5829C42.6239 27.5487 42.7815 27.5989 42.9297 27.7485L43.0718 27.6077C42.8825 27.4167 42.6592 27.338 42.4103 27.3866L42.4486 27.5829ZM42.9369 27.7551C43.0958 27.8868 43.2086 28.0934 43.2663 28.3884L43.4625 28.3501C43.3991 28.0251 43.2694 27.7709 43.0646 27.6011L42.9369 27.7551ZM43.2663 28.3884C43.4056 29.102 43.3318 29.8607 43.0398 30.6668L43.2279 30.7349C43.5301 29.9005 43.61 29.1048 43.4625 28.3501L43.2663 28.3884ZM43.0393 30.6683C42.7623 31.4741 42.3372 32.2517 41.7626 33.001L41.9213 33.1227C42.5077 32.358 42.9438 31.5616 43.2284 30.7333L43.0393 30.6683ZM41.7619 33.0019C41.2037 33.7479 40.5576 34.3848 39.8237 34.9133L39.9405 35.0756C40.6915 34.5349 41.352 33.8835 41.922 33.1218L41.7619 33.0019ZM39.8244 34.9128C39.105 35.4209 38.3698 35.7469 37.6187 35.8936L37.6571 36.0899C38.4396 35.937 39.2006 35.5982 39.9398 35.0761L39.8244 34.9128ZM37.6187 35.8936C37.0982 35.9952 36.7216 35.9139 36.4645 35.6777L36.3292 35.8251C36.65 36.1197 37.1007 36.1985 37.6571 36.0899L37.6187 35.8936ZM36.485 35.7987L36.6526 35.4865L36.4764 35.3919L36.3088 35.7041L36.485 35.7987ZM43.899 35.0229L43.9597 34.9432L43.9549 34.9399L43.899 35.0229ZM44.2506 31.88L44.1597 31.8383L44.2506 31.88ZM47.0796 26.983L47.0605 26.8849L47.0187 26.893L46.9956 26.9288L47.0796 26.983ZM48.9151 26.6245L48.9785 26.7018L48.8959 26.5264L48.9151 26.6245ZM48.2568 27.2866L48.1814 27.2209L48.1796 27.223L48.2568 27.2866ZM47.4404 28.3099L47.3614 28.2483L47.3579 28.2534L47.4404 28.3099ZM45.2987 31.5229L45.383 31.5767L45.2987 31.5229ZM44.2091 33.4887L44.3008 33.5288L44.3018 33.5264L44.2091 33.4887ZM45.5505 34.243L45.6194 34.3155L45.6204 34.3145L45.5505 34.243ZM47.0204 32.5331L47.1002 32.5934L47.0204 32.5331ZM48.4926 30.3147L48.4074 30.2622L48.4062 30.2644L48.4926 30.3147ZM48.7241 29.9392L48.7049 29.8411L48.662 29.8495L48.639 29.8867L48.7241 29.9392ZM48.9688 29.8914L49.0546 29.9428L49.17 29.7502L48.9497 29.7933L48.9688 29.8914ZM48.7964 30.1792L48.7106 30.1277L48.7098 30.1291L48.7964 30.1792ZM47.1911 32.6268L47.2703 32.6879L47.2711 32.6868L47.1911 32.6268ZM45.6282 34.3802L45.5603 34.3068L45.6282 34.3802ZM51.8311 20.8721L51.9157 20.9254L51.9172 20.923L51.8311 20.8721ZM51.0738 21.8076L51.1433 21.8795L51.1442 21.8786L51.0738 21.8076ZM50.2494 21.3589L50.334 21.4122L50.3354 21.4098L50.2494 21.3589ZM51.0067 20.4234L51.0747 20.4968L51.0771 20.4944L51.0067 20.4234ZM44.4123 35.0494C44.2447 35.0821 44.0962 35.0474 43.9596 34.9433L43.8384 35.1024C44.0202 35.241 44.2267 35.2894 44.4507 35.2457L44.4123 35.0494ZM43.9549 34.9399C43.8223 34.8506 43.7393 34.724 43.7058 34.5525L43.5095 34.5908C43.5525 34.8109 43.6637 34.985 43.8432 35.1058L43.9549 34.9399ZM43.7058 34.5525C43.5944 33.9824 43.7957 33.1108 44.3415 31.9218L44.1597 31.8383C43.6124 33.0308 43.385 33.9536 43.5095 34.5908L43.7058 34.5525ZM44.3415 31.9218C44.885 30.7376 45.8249 29.11 47.1636 27.0373L46.9956 26.9288C45.6554 29.0039 44.7093 30.641 44.1597 31.8383L44.3415 31.9218ZM47.0988 27.0812L48.9342 26.7227L48.8959 26.5264L47.0605 26.8849L47.0988 27.0812ZM48.8517 26.5472C48.6559 26.7077 48.4324 26.933 48.1814 27.2209L48.3322 27.3523C48.5793 27.0688 48.7947 26.8526 48.9785 26.7018L48.8517 26.5472ZM48.1796 27.223C47.9461 27.5065 47.6734 27.8484 47.3616 28.2484L47.5193 28.3714C47.8304 27.9722 48.102 27.6319 48.334 27.3502L48.1796 27.223ZM47.3579 28.2534C46.4617 29.5636 45.7471 30.6356 45.2145 31.469L45.383 31.5767C45.9141 30.7458 46.6273 29.6757 47.523 28.3663L47.3579 28.2534ZM45.2145 31.469C44.6817 32.3026 44.3145 32.9641 44.1165 33.4511L44.3018 33.5264C44.4928 33.0567 44.852 32.4075 45.383 31.5767L45.2145 31.469ZM44.1175 33.4486C43.9052 33.9336 43.8141 34.3291 43.8712 34.6218L44.0675 34.5834C44.0227 34.3541 44.0914 34.0069 44.3007 33.5288L44.1175 33.4486ZM43.8712 34.6218C43.9035 34.787 43.9634 34.9228 44.0641 35.0093C44.1691 35.0995 44.302 35.1223 44.4465 35.094L44.4081 34.8977C44.3079 34.9173 44.242 34.8984 44.1944 34.8576C44.1425 34.8129 44.0958 34.7282 44.0675 34.5834L43.8712 34.6218ZM44.4465 35.094C44.6036 35.0633 44.7794 34.9791 44.9718 34.8501C45.1652 34.7204 45.3812 34.5417 45.6194 34.3155L45.4817 34.1705C45.2484 34.392 45.0414 34.5627 44.8604 34.684C44.6785 34.8059 44.5283 34.8743 44.4081 34.8977L44.4465 35.094ZM45.6204 34.3145C46.0802 33.8654 46.5735 33.2913 47.1002 32.5934L46.9406 32.4729C46.4178 33.1655 45.9312 33.7314 45.4807 34.1714L45.6204 34.3145ZM47.1002 32.5934C47.6275 31.8948 48.1204 31.152 48.579 30.3651L48.4062 30.2644C47.9514 31.0447 47.4629 31.7809 46.9406 32.4729L47.1002 32.5934ZM48.5777 30.3672L48.8092 29.9917L48.639 29.8867L48.4074 30.2622L48.5777 30.3672ZM48.7433 30.0374L48.988 29.9896L48.9497 29.7933L48.7049 29.8411L48.7433 30.0374ZM48.883 29.84L48.7106 30.1278L48.8821 30.2306L49.0546 29.9428L48.883 29.84ZM48.7098 30.1291C48.1924 31.0235 47.6595 31.836 47.1112 32.5668L47.2711 32.6868C47.8248 31.949 48.362 31.1297 48.8829 30.2292L48.7098 30.1291ZM47.112 32.5657C46.56 33.2808 46.0428 33.8607 45.5603 34.3068L45.696 34.4537C46.1891 33.9978 46.7138 33.4088 47.2703 32.6879L47.112 32.5657ZM45.5603 34.3068C45.0741 34.7563 44.6929 34.9946 44.4123 35.0494L44.4507 35.2457C44.7901 35.1794 45.2067 34.9061 45.696 34.4537L45.5603 34.3068ZM51.8155 20.0116C51.8865 19.9977 51.9246 20.0055 51.943 20.0152C51.9567 20.0223 51.9726 20.037 51.9811 20.0806L52.1774 20.0423C52.1604 19.9554 52.1164 19.8801 52.0357 19.838C51.9599 19.7983 51.8692 19.7974 51.7771 19.8153L51.8155 20.0116ZM51.9811 20.0806C52.0118 20.2376 51.9469 20.4796 51.745 20.8212L51.9172 20.923C52.1226 20.5753 52.2232 20.2768 52.1774 20.0423L51.9811 20.0806ZM51.7465 20.8188C51.544 21.1402 51.2964 21.4462 51.0034 21.7366L51.1442 21.8786C51.4471 21.5784 51.7045 21.2607 51.9157 20.9254L51.7465 20.8188ZM51.0042 21.7358C50.7257 22.0054 50.4778 22.1524 50.2602 22.1949L50.2986 22.3912C50.5704 22.3381 50.8521 22.1615 51.1433 21.8795L51.0042 21.7358ZM50.2602 22.1949C50.1891 22.2088 50.1511 22.201 50.1326 22.1914C50.119 22.1842 50.1031 22.1695 50.0946 22.1259L49.8983 22.1643C49.9153 22.2512 49.9593 22.3264 50.0399 22.3686C50.1158 22.4082 50.2065 22.4092 50.2986 22.3912L50.2602 22.1949ZM50.0946 22.1259C50.0641 21.9701 50.1295 21.7368 50.334 21.4122L50.1648 21.3056C49.9555 21.6377 49.8522 21.9285 49.8983 22.1643L50.0946 22.1259ZM50.3354 21.4098C50.5341 21.0737 50.7804 20.7694 51.0746 20.4968L50.9387 20.35C50.6306 20.6355 50.372 20.9548 50.1633 21.308L50.3354 21.4098ZM51.0771 20.4944C51.3708 20.2033 51.6165 20.0505 51.8155 20.0116L51.7771 19.8153C51.5192 19.8657 51.2385 20.0528 50.9363 20.3524L51.0771 20.4944ZM48.1456 31.3733L48.2407 31.4043L48.2416 31.4011L48.1456 31.3733ZM49.0543 29.392L48.9697 29.3386L48.9697 29.3387L49.0543 29.392ZM50.5396 27.5013L50.4684 27.4311L50.4676 27.4319L50.5396 27.5013ZM54.8892 27.0074L54.799 26.9643L54.7981 26.9663L54.8892 27.0074ZM53.327 29.6753L53.2432 29.6208L53.2421 29.6225L53.327 29.6753ZM51.7325 31.9176L51.8088 31.9823L51.8098 31.9811L51.7325 31.9176ZM50.1898 33.5147L50.2536 33.5917L50.2554 33.5902L50.1898 33.5147ZM50.8146 32.6813L50.8876 32.7496L50.8878 32.7494L50.8146 32.6813ZM53.1808 29.5769L53.0973 29.5217L53.0969 29.5223L53.1808 29.5769ZM54.6935 27.0457L54.603 27.0031L54.6027 27.0036L54.6935 27.0457ZM53.2846 26.0759L53.3467 26.1543L53.3477 26.1535L53.2846 26.0759ZM51.9632 27.3757L52.0378 27.4423L52.039 27.4409L51.9632 27.3757ZM50.6157 29.0616L50.5346 29.0032L50.6157 29.0616ZM49.4485 30.8902L49.5351 30.9402L49.5359 30.9388L49.4485 30.8902ZM48.6782 32.5396L48.7716 32.5757L48.773 32.5717L48.6782 32.5396ZM57.4157 28.4956L57.3299 28.4442L57.3296 28.4448L57.4157 28.4956ZM55.1904 31.8012L55.2701 31.8616L55.2706 31.861L55.1904 31.8012ZM52 35.4985L51.9277 35.4294L51.9273 35.4298L52 35.4985ZM47.5849 39.689L47.5192 39.6136L47.5189 39.6139L47.5849 39.689ZM44.349 42.633L44.2802 42.5604L44.2795 42.5611L44.349 42.633ZM41.701 45.3352L41.6271 45.2677L41.6269 45.2679L41.701 45.3352ZM39.9405 47.5083L40.0226 47.5654L40.0234 47.5641L39.9405 47.5083ZM42.0524 47.6547L41.9848 47.581L41.9839 47.5818L42.0524 47.6547ZM44.9426 44.3717L44.8629 44.3114L44.8628 44.3114L44.9426 44.3717ZM48.0982 39.7158L48.1833 39.7683L48.1836 39.7678L48.0982 39.7158ZM51.1504 34.1401L51.0611 34.0949L51.0607 34.0958L51.1504 34.1401ZM51.6736 33.047L51.5839 33.0028L51.5826 33.0056L51.6736 33.047ZM52.3497 31.6955L52.4389 31.7406L52.4397 31.739L52.3497 31.6955ZM53.2578 29.8413L53.3498 29.802L53.2644 29.6023L53.1682 29.797L53.2578 29.8413ZM53.3982 30.1696L53.4173 30.2677L53.5387 30.244L53.4901 30.1302L53.3982 30.1696ZM52.7864 30.2891L52.7029 30.234L52.5717 30.4329L52.8055 30.3872L52.7864 30.2891ZM54.8445 27.1686L54.9283 27.2239L54.9325 27.2161L54.8445 27.1686ZM55.8702 25.266L55.8511 25.1679L55.8047 25.177L55.7822 25.2186L55.8702 25.266ZM57.5833 24.9314L57.6542 25.002L57.8844 24.7707L57.5641 24.8333L57.5833 24.9314ZM56.0842 26.6216L56.1619 26.6845L56.1621 26.6843L56.0842 26.6216ZM54.6084 28.5612L54.6897 28.6195L54.6897 28.6194L54.6084 28.5612ZM53.3773 30.4531L53.2902 30.4025L53.2853 30.414L53.3773 30.4531ZM50.4579 36.9684L50.3678 36.925L50.3675 36.9256L50.4579 36.9684ZM48.3366 41.0666L48.4216 41.1193L48.4224 41.118L48.3366 41.0666ZM43.8949 46.8121L43.8253 46.7403L43.8949 46.8121ZM39.6325 47.4922L39.7154 47.5481L39.6325 47.4922ZM41.5159 45.1681L41.5897 45.2355L41.5903 45.2349L41.5159 45.1681ZM44.2474 42.3734L44.3164 42.4458L44.3169 42.4453L44.2474 42.3734ZM47.4046 39.5464L47.3408 39.4694L47.3407 39.4695L47.4046 39.5464ZM51.4706 35.7797L51.3993 35.7096L51.3984 35.7105L51.4706 35.7797ZM54.7786 32.034L54.8575 32.0954L54.8576 32.0954L54.7786 32.034ZM57.1363 28.6264L57.2225 28.6773L57.2236 28.6752L57.1363 28.6264ZM57.3434 28.2557L57.3242 28.1575L57.2787 28.1664L57.2561 28.2069L57.3434 28.2557ZM57.5881 28.2079L57.6739 28.2593L57.7893 28.0667L57.5689 28.1097L57.5881 28.2079ZM48.9841 34.1056C48.7525 34.1508 48.5726 34.0965 48.4291 33.949C48.2794 33.795 48.1607 33.5305 48.0841 33.1384L47.8878 33.1767C47.9673 33.584 48.0962 33.8936 48.2857 34.0884C48.4813 34.2895 48.7319 34.3586 49.0224 34.3019L48.9841 34.1056ZM48.0841 33.1384C47.9829 32.6203 48.0331 32.0431 48.2407 31.4042L48.0505 31.3424C47.8349 32.0057 47.7787 32.618 47.8878 33.1767L48.0841 33.1384ZM48.2416 31.4011C48.4308 30.7469 48.7295 30.095 49.1389 29.4453L48.9697 29.3387C48.5515 30.0024 48.2445 30.6713 48.0495 31.3456L48.2416 31.4011ZM49.1388 29.4454C49.562 28.775 50.0529 28.1502 50.6116 27.5707L50.4676 27.4319C49.8996 28.021 49.4003 28.6566 48.9697 29.3386L49.1388 29.4454ZM50.6108 27.5715C51.1853 26.9894 51.7941 26.5018 52.4372 26.1083L52.3328 25.9377C51.6748 26.3403 51.0534 26.8383 50.4685 27.4311L50.6108 27.5715ZM52.4372 26.1083C53.0796 25.7152 53.7038 25.4608 54.31 25.3424L54.2716 25.1461C53.6378 25.2699 52.9915 25.5347 52.3328 25.9377L52.4372 26.1083ZM54.31 25.3424C54.5696 25.2917 54.756 25.3068 54.8824 25.3687C55.0028 25.4277 55.0845 25.5371 55.1197 25.7175L55.316 25.6792C55.2716 25.4516 55.1589 25.2815 54.9704 25.1891C54.7877 25.0996 54.5504 25.0917 54.2716 25.1461L54.31 25.3424ZM55.1197 25.7175C55.1704 25.9766 55.0747 26.3868 54.799 26.9643L54.9795 27.0505C55.2567 26.47 55.3801 26.0074 55.316 25.6792L55.1197 25.7175ZM54.7981 26.9663C54.5414 27.5346 54.0243 28.4184 53.2432 29.6208L53.4109 29.7298C54.1924 28.5268 54.7168 27.632 54.9804 27.0486L54.7981 26.9663ZM53.2421 29.6225C52.7286 30.4483 52.1996 31.1921 51.6553 31.8541L51.8098 31.9811C52.3603 31.3115 52.8944 30.5604 53.412 29.7281L53.2421 29.6225ZM51.6562 31.853C51.1078 32.4999 50.5972 33.0283 50.1242 33.4392L50.2554 33.5902C50.7381 33.1708 51.2559 32.6345 51.8088 31.9823L51.6562 31.853ZM50.126 33.4377C49.6475 33.8344 49.2682 34.0501 48.9841 34.1056L49.0224 34.3019C49.3583 34.2363 49.77 33.9926 50.2536 33.5917L50.126 33.4377ZM49.0134 34.1258C49.2628 34.0771 49.5427 33.9329 49.8514 33.7045C50.1614 33.4753 50.5068 33.1564 50.8876 32.7496L50.7416 32.6129C50.3656 33.0145 50.0294 33.3242 49.7325 33.5437C49.4345 33.7642 49.1826 33.889 48.9751 33.9295L49.0134 34.1258ZM50.8878 32.7494C51.6626 31.9162 52.4548 30.8765 53.2646 29.6314L53.0969 29.5223C52.2916 30.7606 51.5063 31.7906 50.7414 32.6132L50.8878 32.7494ZM53.2642 29.632C54.0226 28.4844 54.5306 27.6352 54.7842 27.0877L54.6027 27.0036C54.356 27.5362 53.8555 28.3745 53.0973 29.5217L53.2642 29.632ZM54.7839 27.0882C55.0484 26.5263 55.1645 26.0741 55.1006 25.7467L54.9043 25.785C54.955 26.0449 54.8652 26.4459 54.603 27.0031L54.7839 27.0882ZM55.1006 25.7467C55.0693 25.5867 54.9924 25.4609 54.8598 25.3905C54.7319 25.3227 54.5701 25.3165 54.3881 25.352L54.4264 25.5483C54.587 25.5169 54.6957 25.5299 54.7661 25.5672C54.832 25.6021 54.8813 25.6676 54.9043 25.785L55.1006 25.7467ZM54.3881 25.352C54.0538 25.4173 53.6641 25.6384 53.2215 25.9984L53.3477 26.1535C53.782 25.8003 54.1407 25.6041 54.4264 25.5483L54.3881 25.352ZM53.2224 25.9976C52.791 26.3396 52.346 26.7776 51.8874 27.3104L52.039 27.4409C52.4916 26.9151 52.9275 26.4866 53.3467 26.1543L53.2224 25.9976ZM51.8887 27.309C51.4274 27.8249 50.9761 28.3897 50.5346 29.0032L50.6969 29.12C51.1346 28.5117 51.5816 27.9525 52.0378 27.4423L51.8887 27.309ZM50.5346 29.0032C50.0929 29.617 49.7017 30.2298 49.3612 30.8415L49.5359 30.9388C49.8724 30.3343 50.2594 29.7281 50.6969 29.12L50.5346 29.0032ZM49.3619 30.8402C49.0178 31.4362 48.7579 31.9921 48.5835 32.5076L48.773 32.5717C48.9422 32.0715 49.1959 31.5278 49.5351 30.9402L49.3619 30.8402ZM48.585 32.5035C48.391 33.0052 48.3181 33.4286 48.3839 33.7658L48.5802 33.7274C48.525 33.4446 48.5829 33.0634 48.7715 32.5757L48.585 32.5035ZM48.3839 33.7658C48.4118 33.9084 48.4795 34.0231 48.5979 34.0881C48.7122 34.1508 48.8554 34.1567 49.0134 34.1258L48.9751 33.9295C48.8395 33.956 48.7504 33.9437 48.6941 33.9127C48.6417 33.884 48.6002 33.8295 48.5802 33.7274L48.3839 33.7658ZM57.3296 28.4448C56.7207 29.4751 55.981 30.5739 55.1102 31.7414L55.2706 31.861C56.1447 30.689 56.8886 29.5841 57.5018 28.5465L57.3296 28.4448ZM55.1108 31.7407C54.2379 32.8905 53.177 34.12 51.9277 35.4294L52.0724 35.5675C53.3256 34.254 54.3917 33.0187 55.2701 31.8616L55.1108 31.7407ZM51.9273 35.4298C50.6951 36.7352 49.2258 38.1298 47.5192 39.6136L47.6505 39.7645C49.3608 38.2774 50.835 36.8783 52.0727 35.5671L51.9273 35.4298ZM47.5189 39.6139C46.3757 40.6169 45.2962 41.599 44.2802 42.5604L44.4177 42.7057C45.4317 41.7462 46.5094 40.7657 47.6508 39.7642L47.5189 39.6139ZM44.2795 42.5611C43.2666 43.5389 42.3824 44.4412 41.6271 45.2677L41.7748 45.4026C42.5266 44.5798 43.4078 43.6806 44.4184 42.705L44.2795 42.5611ZM41.6269 45.2679C40.8586 46.1139 40.2683 46.8423 39.8575 47.4524L40.0234 47.5641C40.4267 46.9651 41.01 46.2448 41.775 45.4024L41.6269 45.2679ZM39.8584 47.4511C39.6448 47.7578 39.4883 48.0246 39.3915 48.2505C39.2959 48.4736 39.2526 48.6703 39.2839 48.8306L39.4802 48.7923C39.4605 48.6916 39.4848 48.5405 39.5753 48.3293C39.6647 48.1208 39.8129 47.8665 40.0225 47.5654L39.8584 47.4511ZM39.2839 48.8306C39.3091 48.9599 39.364 49.0686 39.462 49.1346C39.56 49.2006 39.6814 49.2105 39.8107 49.1853L39.7724 48.989C39.6733 49.0083 39.6122 48.9946 39.5737 48.9687C39.5352 48.9428 39.4995 48.8913 39.4802 48.7923L39.2839 48.8306ZM39.8107 49.1853C40.4596 49.0585 41.2306 48.5643 42.1209 47.7276L41.9839 47.5818C41.0997 48.4128 40.3634 48.8735 39.7724 48.989L39.8107 49.1853ZM42.12 47.7284C43.0163 46.9054 43.9838 45.8061 45.0224 44.432L44.8628 44.3114C43.8287 45.6796 42.8693 46.7689 41.9848 47.581L42.12 47.7284ZM45.0223 44.4321C46.0479 43.0775 47.1015 41.5228 48.1833 39.7683L48.0131 39.6633C46.9339 41.4135 45.8839 42.9628 44.8629 44.3114L45.0223 44.4321ZM48.1836 39.7678C49.2494 38.0159 50.2682 36.1547 51.24 34.1843L51.0607 34.0958C50.0913 36.0614 49.0753 37.9174 48.0128 39.6638L48.1836 39.7678ZM51.2396 34.1852C51.4113 33.8455 51.5863 33.4799 51.7646 33.0885L51.5826 33.0056C51.4053 33.3949 51.2315 33.758 51.0611 34.0949L51.2396 34.1852ZM51.7633 33.0912C51.9573 32.698 52.1825 32.2478 52.4389 31.7406L52.2604 31.6503C52.0038 32.158 51.7783 32.6088 51.5839 33.0028L51.7633 33.0912ZM52.4397 31.739C52.6929 31.2156 52.9955 30.5978 53.3475 29.8856L53.1682 29.797C52.8161 30.5095 52.5132 31.1278 52.2597 31.6519L52.4397 31.739ZM53.1659 29.8806L53.3062 30.2089L53.4901 30.1302L53.3498 29.802L53.1659 29.8806ZM53.379 30.0714L52.7672 30.1909L52.8055 30.3872L53.4173 30.2677L53.379 30.0714ZM52.8698 30.3441L54.928 27.2237L54.761 27.1135L52.7029 30.234L52.8698 30.3441ZM54.9325 27.2161L55.9583 25.3135L55.7822 25.2186L54.7565 27.1211L54.9325 27.2161ZM55.8894 25.3642L57.6025 25.0296L57.5641 24.8333L55.8511 25.1679L55.8894 25.3642ZM57.5124 24.8609C57.0281 25.3474 56.5261 25.9135 56.0063 26.5589L56.1621 26.6843C56.6783 26.0433 57.1757 25.4826 57.6542 25.002L57.5124 24.8609ZM56.0065 26.5587C55.5003 27.1839 55.0072 27.832 54.5271 28.503L54.6897 28.6194C55.1676 27.9516 55.6583 27.3066 56.1619 26.6845L56.0065 26.5587ZM54.5271 28.503C54.0596 29.1552 53.6475 29.7885 53.2908 30.4029L53.4638 30.5033C53.8169 29.8951 54.2254 29.2672 54.6897 28.6195L54.5271 28.503ZM53.2853 30.414C52.195 32.9804 51.2225 35.1506 50.3678 36.925L50.548 37.0118C51.4045 35.2337 52.3783 33.0604 53.4694 30.4922L53.2853 30.414ZM50.3675 36.9256C49.5287 38.6975 48.8232 40.0601 48.2509 41.0152L48.4224 41.118C48.9997 40.1547 49.7084 38.7852 50.5483 37.0111L50.3675 36.9256ZM48.2517 41.0139C46.7602 43.4184 45.2846 45.3264 43.8253 46.7403L43.9645 46.8839C45.4391 45.4552 46.9246 43.5328 48.4216 41.1193L48.2517 41.0139ZM43.8253 46.7403C42.364 48.1561 41.0439 48.9693 39.8644 49.1997L39.9027 49.396C41.1378 49.1547 42.4919 48.3107 43.9645 46.8839L43.8253 46.7403ZM39.8644 49.1997C39.6287 49.2457 39.4613 49.233 39.3492 49.1803C39.2436 49.1306 39.1726 49.0383 39.1423 48.8837L38.946 48.922C38.9859 49.1262 39.0898 49.2793 39.264 49.3613C39.4317 49.4402 39.6489 49.4455 39.9027 49.396L39.8644 49.1997ZM39.1423 48.8837C39.121 48.7745 39.1472 48.6102 39.2429 48.3806C39.3374 48.154 39.4941 47.8768 39.7154 47.5481L39.5495 47.4364C39.3245 47.7707 39.1599 48.0601 39.0583 48.3037C38.958 48.5443 38.9132 48.7538 38.946 48.922L39.1423 48.8837ZM39.7154 47.5481C40.1581 46.8906 40.7823 46.1198 41.5897 45.2355L41.442 45.1006C40.631 45.989 39.9996 46.7678 39.5495 47.4364L39.7154 47.5481ZM41.5903 45.2349C42.3812 44.354 43.2899 43.4243 44.3164 42.4458L44.1784 42.301C43.1488 43.2824 42.2364 44.2158 41.4415 45.1013L41.5903 45.2349ZM44.3169 42.4453C45.3269 41.4703 46.3774 40.5297 47.4685 39.6233L47.3407 39.4695C46.2458 40.379 45.1916 41.323 44.178 42.3014L44.3169 42.4453ZM47.4683 39.6234C48.9436 38.402 50.3018 37.1438 51.5428 35.8489L51.3984 35.7105C50.1631 36.9995 48.8106 38.2525 47.3408 39.4694L47.4683 39.6234ZM51.5419 35.8498C52.8018 34.5687 53.9071 33.3172 54.8575 32.0954L54.6997 31.9726C53.7547 33.1874 52.6547 34.4331 51.3993 35.7096L51.5419 35.8498ZM54.8576 32.0954C55.8202 30.8552 56.6087 29.7158 57.2224 28.6773L57.0502 28.5755C56.4419 29.605 55.6585 30.7373 54.6996 31.9727L54.8576 32.0954ZM57.2236 28.6752L57.4307 28.3045L57.2561 28.2069L57.049 28.5777L57.2236 28.6752ZM57.3626 28.3538L57.6073 28.306L57.5689 28.1097L57.3242 28.1575L57.3626 28.3538ZM57.5023 28.1565L57.3299 28.4442L57.5014 28.547L57.6739 28.2593L57.5023 28.1565ZM60.0618 31.434L60.1213 31.5144L60.1221 31.5138L60.0618 31.434ZM61.9525 29.6674L62.0269 29.7342L62.0271 29.7339L61.9525 29.6674ZM63.6353 27.357L63.5502 27.3045L63.5491 27.3064L63.6353 27.357ZM63.8668 26.9815L63.8477 26.8834L63.8047 26.8918L63.7817 26.929L63.8668 26.9815ZM64.0871 26.9385L64.1757 26.9849L64.2721 26.8005L64.0679 26.8404L64.0871 26.9385ZM63.9391 27.2215L64.0248 27.2735L64.0277 27.2678L63.9391 27.2215ZM62.153 29.6536L62.0779 29.5876L62.0773 29.5884L62.153 29.6536ZM60.1836 31.5373L60.2425 31.6181L60.2439 31.617L60.1836 31.5373ZM57.3346 32.17L57.3978 32.0924L57.3346 32.17ZM56.8679 29.3902L56.9633 29.4204L56.9636 29.4192L56.8679 29.3902ZM57.7271 27.5456L57.6424 27.4924L57.6424 27.4925L57.7271 27.5456ZM60.8466 24.3957L60.7942 24.3105L60.8466 24.3957ZM63.3045 23.7123L63.2591 23.8022L63.2705 23.8064L63.3045 23.7123ZM63.2684 25.2184L63.1867 25.1607L63.1854 25.1625L63.2684 25.2184ZM62.0498 26.5234L62.1134 26.6006L62.1142 26.5999L62.0498 26.5234ZM60.3428 27.6698L60.3894 27.7584L60.3907 27.7576L60.3428 27.6698ZM58.5158 28.3316L58.4328 28.2757L58.298 28.476L58.535 28.4297L58.5158 28.3316ZM58.693 28.0683L58.6681 27.9715L58.6313 27.9809L58.6101 28.0125L58.693 28.0683ZM60.3684 27.4108L60.4148 27.4994L60.4163 27.4986L60.3684 27.4108ZM61.9136 26.3468L61.9795 26.422L61.9802 26.4214L61.9136 26.3468ZM62.9998 25.1438L62.9182 25.0859L62.9168 25.088L62.9998 25.1438ZM61.4519 24.6331L61.5182 24.708L61.5198 24.7066L61.4519 24.6331ZM59.9629 26.2451L60.0415 26.307L60.0416 26.3068L59.9629 26.2451ZM58.6238 28.2343L58.537 28.1846L58.6238 28.2343ZM57.7199 30.2401L57.8142 30.2733L57.8153 30.27L57.7199 30.2401ZM58.3901 32.3706C58.9159 32.2679 59.4933 31.9794 60.1213 31.5144L60.0023 31.3537C59.3873 31.809 58.8374 32.0794 58.3517 32.1743L58.3901 32.3706ZM60.1221 31.5138C60.7626 31.0297 61.3975 30.4362 62.0269 29.7342L61.878 29.6007C61.2557 30.2948 60.6302 30.8791 60.0015 31.3543L60.1221 31.5138ZM62.0271 29.7339C62.6704 29.0114 63.2353 28.236 63.7216 27.4077L63.5491 27.3064C63.0695 28.1233 62.5124 28.8882 61.8778 29.6009L62.0271 29.7339ZM63.7204 27.4095L63.952 27.034L63.7817 26.929L63.5502 27.3045L63.7204 27.4095ZM63.886 27.0797L64.1063 27.0367L64.0679 26.8404L63.8477 26.8834L63.886 27.0797ZM63.9985 26.8922L63.8505 27.1751L64.0277 27.2678L64.1757 26.9849L63.9985 26.8922ZM63.8537 27.1695C63.3312 28.0294 62.7393 28.8354 62.0779 29.5876L62.2281 29.7197C62.8972 28.9586 63.496 28.1432 64.0246 27.2734L63.8537 27.1695ZM62.0773 29.5884C61.4321 30.3374 60.7807 30.9602 60.1232 31.4575L60.2439 31.617C60.9146 31.1097 61.5761 30.4767 62.2288 29.7189L62.0773 29.5884ZM60.1247 31.4564C59.4634 31.9381 58.8824 32.2231 58.3804 32.3211L58.4187 32.5174C58.9609 32.4115 59.5692 32.1085 60.2424 31.6181L60.1247 31.4564ZM58.3804 32.3211C57.9994 32.3955 57.6751 32.3181 57.3978 32.0924L57.2715 32.2475C57.5983 32.5135 57.984 32.6023 58.4187 32.5174L58.3804 32.3211ZM57.3978 32.0924C57.119 31.8655 56.9272 31.5136 56.8315 31.0233L56.6352 31.0617C56.737 31.5829 56.9461 31.9827 57.2715 32.2475L57.3978 32.0924ZM56.8315 31.0233C56.7365 30.5371 56.7787 30.0036 56.9632 29.4204L56.7726 29.3601C56.5801 29.9684 56.5326 30.5363 56.6352 31.0617L56.8315 31.0233ZM56.9636 29.4192C57.146 28.8167 57.4284 28.2099 57.8118 27.5987L57.6424 27.4925C57.2508 28.1166 56.9604 28.7396 56.7722 29.3612L56.9636 29.4192ZM57.8118 27.5988C58.2085 26.9679 58.6728 26.3823 59.2049 25.8421L59.0625 25.7017C58.5203 26.2521 58.047 26.849 57.6425 27.4924L57.8118 27.5988ZM59.2049 25.8421C59.7368 25.3021 60.3015 24.8485 60.899 24.4808L60.7942 24.3105C60.182 24.6872 59.6048 25.1511 59.0625 25.7017L59.2049 25.8421ZM60.899 24.4808C61.4951 24.114 62.0882 23.874 62.6784 23.7587L62.6401 23.5624C62.023 23.6829 61.4076 23.933 60.7942 24.3105L60.899 24.4808ZM62.6784 23.7587C62.9263 23.7103 63.1167 23.7294 63.2594 23.8016L63.3497 23.6231C63.154 23.5242 62.9143 23.5088 62.6401 23.5624L62.6784 23.7587ZM63.2705 23.8064C63.4221 23.8613 63.5045 23.9572 63.5324 24.0998L63.7287 24.0614C63.6864 23.845 63.5515 23.6954 63.3386 23.6183L63.2705 23.8064ZM63.5324 24.0998C63.5885 24.387 63.4851 24.738 63.1867 25.1607L63.3501 25.276C63.6619 24.8343 63.8 24.4267 63.7287 24.0614L63.5324 24.0998ZM63.1854 25.1625C62.9032 25.5818 62.504 26.0101 61.9853 26.447L62.1142 26.5999C62.6427 26.1547 63.056 25.713 63.3514 25.2742L63.1854 25.1625ZM61.9861 26.4463C61.4809 26.8635 60.9172 27.2421 60.2949 27.5821L60.3907 27.7576C61.0234 27.4121 61.5977 27.0264 62.1134 26.6006L61.9861 26.4463ZM60.2962 27.5814C59.6894 27.9006 59.0896 28.1176 58.4966 28.2334L58.535 28.4297C59.1493 28.3097 59.7675 28.0856 60.3894 27.7583L60.2962 27.5814ZM58.5987 28.3874L58.776 28.1241L58.6101 28.0125L58.4328 28.2757L58.5987 28.3874ZM58.7179 28.1652C59.2746 28.022 59.8402 27.7999 60.4148 27.4994L60.3221 27.3222C59.7594 27.6164 59.2081 27.8326 58.6681 27.9715L58.7179 28.1652ZM60.4163 27.4986C61.0037 27.1786 61.525 26.8198 61.9795 26.422L61.8478 26.2715C61.4055 26.6587 60.8966 27.0092 60.3206 27.323L60.4163 27.4986ZM61.9802 26.4214C62.4461 26.0055 62.8143 25.5984 63.0827 25.1996L62.9168 25.088C62.6601 25.4693 62.3042 25.8641 61.847 26.2722L61.9802 26.4214ZM63.0813 25.2017C63.3655 24.801 63.4971 24.4367 63.435 24.1188L63.2387 24.1571C63.2849 24.3938 63.1918 24.7002 62.9182 25.086L63.0813 25.2017ZM63.435 24.1188C63.4053 23.9666 63.3313 23.8464 63.2035 23.7796C63.0805 23.7152 62.9254 23.7099 62.7517 23.7438L62.7901 23.9401C62.9427 23.9103 63.0451 23.9225 63.1108 23.9568C63.1716 23.9886 63.2174 24.0483 63.2387 24.1571L63.435 24.1188ZM62.7517 23.7438C62.3335 23.8255 61.8773 24.1036 61.384 24.5597L61.5198 24.7066C62.002 24.2607 62.4252 24.0114 62.7901 23.9401L62.7517 23.7438ZM61.3856 24.5583C60.8892 24.9977 60.3888 25.5397 59.8842 26.1834L60.0416 26.3068C60.5404 25.6705 61.0326 25.1378 61.5182 24.708L61.3856 24.5583ZM59.8843 26.1832C59.3927 26.8077 58.9436 27.4748 58.537 28.1846L58.7106 28.284C59.1124 27.5825 59.556 26.9235 60.0415 26.307L59.8843 26.1832ZM58.537 28.1846C58.1301 28.8951 57.8255 29.5703 57.6245 30.2101L57.8153 30.27C58.0111 29.6467 58.3092 28.9847 58.7106 28.284L58.537 28.1846ZM57.6255 30.2068C57.4051 30.8324 57.3281 31.3573 57.4095 31.7742L57.6058 31.7359C57.5343 31.3697 57.5987 30.8846 57.8142 30.2733L57.6255 30.2068ZM57.4095 31.7742C57.456 32.0124 57.5609 32.1953 57.7366 32.3006C57.9099 32.4044 58.1326 32.4209 58.3901 32.3706L58.3517 32.1743C58.1197 32.2196 57.9538 32.1976 57.8394 32.129C57.7273 32.0618 57.6453 31.9382 57.6058 31.7359L57.4095 31.7742ZM63.4914 31.0944L63.4156 31.1598L63.4178 31.1622L63.4914 31.0944ZM63.2736 28.4185L63.3687 28.4494L63.3697 28.4463L63.2736 28.4185ZM64.1823 26.4372L64.0977 26.3838L64.0977 26.3839L64.1823 26.4372ZM65.6677 24.5465L65.5965 24.4763L65.5957 24.4771L65.6677 24.5465ZM69.8938 24.3308L69.8061 24.2827L69.8938 24.3308ZM68.4551 26.7205L68.3709 26.6665L68.3706 26.6669L68.4551 26.7205ZM66.9345 28.8213L66.8573 28.7578L66.8565 28.7588L66.9345 28.8213ZM65.4109 30.5163L65.4788 30.5897L65.4803 30.5883L65.4109 30.5163ZM65.245 30.4471L65.3108 30.5223L65.3116 30.5217L65.245 30.4471ZM66.7143 28.8644L66.7922 28.9271L66.7923 28.9269L66.7143 28.8644ZM68.3088 26.622L68.2247 26.568L68.2245 26.5682L68.3088 26.622ZM69.7081 24.2908L69.7961 24.3384L69.7081 24.2908ZM68.4126 23.1211L68.4747 23.1995L68.4757 23.1987L68.4126 23.1211ZM67.0913 24.4209L67.1658 24.4875L67.1671 24.4861L67.0913 24.4209ZM65.7438 26.1068L65.6626 26.0484L65.7438 26.1068ZM64.5766 27.9354L64.6632 27.9854L64.6639 27.984L64.5766 27.9354ZM63.8063 29.5848L63.8996 29.6209L63.901 29.6168L63.8063 29.5848ZM71.0509 25.8324L70.9651 25.781L70.9648 25.7815L71.0509 25.8324ZM69.8257 27.4944L69.8956 27.5661L69.8972 27.5644L69.8257 27.4944ZM67.7566 26.5267L67.6614 26.4961L67.6609 26.4979L67.7566 26.5267ZM68.4034 25.1554L68.3843 25.0573L68.3393 25.0661L68.3166 25.1059L68.4034 25.1554ZM69.5292 24.9355L69.6147 24.9873L69.7316 24.7941L69.51 24.8374L69.5292 24.9355ZM68.396 26.8083L68.4808 26.8612L68.4815 26.86L68.396 26.8083ZM69.6598 27.4252L69.7308 27.4956L69.7314 27.495L69.6598 27.4252ZM70.7471 25.968L70.6619 25.9155L70.6614 25.9164L70.7471 25.968ZM70.9786 25.5925L70.9594 25.4943L70.9165 25.5027L70.8935 25.54L70.9786 25.5925ZM71.2233 25.5447L71.3091 25.5961L71.4245 25.4035L71.2042 25.4465L71.2233 25.5447ZM64.1217 31.1997C63.8927 31.2444 63.712 31.1863 63.5649 31.0267L63.4178 31.1622C63.6147 31.3758 63.8669 31.4533 64.16 31.396L64.1217 31.1997ZM63.5671 31.0291C63.4075 30.8443 63.2868 30.5658 63.2121 30.1836L63.0158 30.2219C63.0941 30.6228 63.2249 30.9388 63.4157 31.1598L63.5671 31.0291ZM63.2121 30.1836C63.1109 29.6655 63.1611 29.0883 63.3687 28.4494L63.1785 28.3876C62.9629 29.0509 62.9067 29.6632 63.0158 30.2219L63.2121 30.1836ZM63.3697 28.4463C63.5588 27.7921 63.8576 27.1402 64.2669 26.4905L64.0977 26.3839C63.6796 27.0475 63.3725 27.7165 63.1775 28.3907L63.3697 28.4463ZM64.2669 26.4906C64.69 25.8202 65.1809 25.1954 65.7397 24.6159L65.5957 24.4771C65.0276 25.0662 64.5283 25.7018 64.0977 26.3838L64.2669 26.4906ZM65.7388 24.6167C66.3133 24.0346 66.9221 23.547 67.5652 23.1535L67.4608 22.9829C66.8028 23.3855 66.1814 23.8835 65.5965 24.4763L65.7388 24.6167ZM67.5652 23.1535C68.2077 22.7604 68.8319 22.506 69.438 22.3876L69.3997 22.1913C68.7659 22.3151 68.1195 22.5799 67.4608 22.9829L67.5652 23.1535ZM69.438 22.3876C69.6976 22.3369 69.8841 22.352 70.0104 22.4139C70.1309 22.4729 70.2126 22.5823 70.2478 22.7627L70.4441 22.7243C70.3996 22.4968 70.287 22.3267 70.0984 22.2343C69.9157 22.1448 69.6785 22.1368 69.3997 22.1913L69.438 22.3876ZM70.2478 22.7627C70.3138 23.1008 70.1794 23.6024 69.8061 24.2827L69.9814 24.3789C70.3576 23.6933 70.5246 23.1367 70.4441 22.7243L70.2478 22.7627ZM69.8061 24.2827C69.4328 24.963 68.9545 25.7575 68.3709 26.6665L68.5392 26.7745C69.1244 25.8631 69.6053 25.0645 69.9814 24.3789L69.8061 24.2827ZM68.3706 26.6669C67.9066 27.3982 67.4021 28.0952 66.8573 28.7578L67.0118 28.8848C67.5618 28.2158 68.0711 27.5122 68.5395 26.7741L68.3706 26.6669ZM66.8565 28.7588C66.3274 29.419 65.8224 29.9806 65.3415 30.4443L65.4803 30.5883C65.9687 30.1174 66.4794 29.5491 67.0126 28.8839L66.8565 28.7588ZM65.3431 30.4428C64.8593 30.89 64.4529 31.135 64.1217 31.1997L64.16 31.396C64.5467 31.3205 64.987 31.0444 65.4788 30.5897L65.3431 30.4428ZM64.151 31.2199C64.4721 31.1572 64.8599 30.917 65.3108 30.5223L65.1791 30.3718C64.7332 30.7621 64.379 30.9716 64.1127 31.0236L64.151 31.2199ZM65.3116 30.5217C65.7783 30.1051 66.2718 29.5732 66.7922 28.9271L66.6364 28.8016C66.1208 29.4419 65.6348 29.9651 65.1784 30.3725L65.3116 30.5217ZM66.7923 28.9269C67.326 28.261 67.8596 27.5106 68.3931 26.6759L68.2245 26.5682C67.6943 27.3979 67.1648 28.1423 66.6363 28.8018L66.7923 28.9269ZM68.393 26.6761C68.9781 25.7647 69.446 24.9853 69.7961 24.3384L69.6202 24.2432C69.2733 24.8842 68.8083 25.659 68.2247 26.568L68.393 26.6761ZM69.7961 24.3384C70.1456 23.6926 70.3028 23.1717 70.2286 22.7918L70.0323 22.8302C70.092 23.1356 69.9676 23.6012 69.6202 24.2432L69.7961 24.3384ZM70.2286 22.7918C70.1974 22.6319 70.1204 22.506 69.9879 22.4357C69.8599 22.3679 69.6981 22.3617 69.5161 22.3972L69.5544 22.5935C69.7151 22.5621 69.8237 22.5751 69.8942 22.6124C69.96 22.6473 70.0094 22.7128 70.0323 22.8302L70.2286 22.7918ZM69.5161 22.3972C69.1818 22.4625 68.7921 22.6835 68.3495 23.0436L68.4757 23.1987C68.91 22.8454 69.2687 22.6493 69.5544 22.5935L69.5161 22.3972ZM68.3505 23.0428C67.919 23.3848 67.474 23.8228 67.0155 24.3556L67.1671 24.4861C67.6196 23.9603 68.0555 23.5318 68.4747 23.1995L68.3505 23.0428ZM67.0167 24.3542C66.5554 24.8701 66.1041 25.4349 65.6626 26.0484L65.8249 26.1652C66.2627 25.5569 66.7097 24.9977 67.1658 24.4875L67.0167 24.3542ZM65.6626 26.0484C65.2209 26.6622 64.8297 27.275 64.4892 27.8867L64.6639 27.984C65.0004 27.3795 65.3874 26.7733 65.8249 26.1652L65.6626 26.0484ZM64.49 27.8854C64.1458 28.4814 63.8859 29.0373 63.7115 29.5527L63.901 29.6168C64.0702 29.1167 64.3239 28.573 64.6632 27.9854L64.49 27.8854ZM63.713 29.5487C63.519 30.0503 63.4461 30.4738 63.512 30.811L63.7083 30.7726C63.653 30.4898 63.7109 30.1086 63.8995 29.6209L63.713 29.5487ZM63.512 30.811C63.5423 30.9662 63.6099 31.0923 63.7277 31.1668C63.8443 31.2406 63.9904 31.2513 64.151 31.2199L64.1127 31.0236C63.9796 31.0496 63.8919 31.034 63.8346 30.9978C63.7786 30.9623 63.7321 30.8947 63.7083 30.7726L63.512 30.811ZM70.9648 25.7815C70.5601 26.4663 70.1564 27.0132 69.7542 27.4245L69.8972 27.5644C70.3139 27.1382 70.7269 26.5772 71.137 25.8833L70.9648 25.7815ZM69.7559 27.4229C69.3482 27.8205 68.996 28.0373 68.6982 28.0955L68.7366 28.2918C69.0914 28.2225 69.478 27.9732 69.8955 27.566L69.7559 27.4229ZM68.6982 28.0955C68.4271 28.1484 68.2291 28.1188 68.089 28.0273C67.9495 27.9364 67.8476 27.7712 67.7965 27.5097L67.6002 27.548C67.6575 27.8413 67.7795 28.0643 67.9797 28.1949C68.1793 28.325 68.4366 28.3504 68.7366 28.2918L68.6982 28.0955ZM67.7965 27.5097C67.7361 27.2005 67.7541 26.8829 67.8524 26.5554L67.6609 26.4979C67.5539 26.8541 67.5331 27.2047 67.6002 27.548L67.7965 27.5097ZM67.8519 26.5572C67.9645 26.2054 68.1763 25.7552 68.4903 25.205L68.3166 25.1059C67.9996 25.6612 67.7802 26.1252 67.6614 26.4961L67.8519 26.5572ZM68.4226 25.2536L69.5483 25.0337L69.51 24.8374L68.3843 25.0573L68.4226 25.2536ZM69.4436 24.8838L68.3104 26.7565L68.4815 26.86L69.6147 24.9873L69.4436 24.8838ZM68.3112 26.7553C68.1183 27.0643 68.0519 27.3895 68.1177 27.7264L68.314 27.6881C68.2588 27.4051 68.3124 27.131 68.4808 26.8612L68.3112 26.7553ZM68.1177 27.7264C68.1478 27.8802 68.2124 28.0061 68.325 28.0819C68.4376 28.1578 68.5785 28.1702 68.7324 28.1402L68.694 27.9439C68.5705 27.968 68.4898 27.9518 68.4367 27.916C68.3836 27.8803 68.3382 27.8116 68.314 27.6881L68.1177 27.7264ZM68.7324 28.1402C69.0395 28.0802 69.3726 27.8572 69.7308 27.4956L69.5887 27.3549C69.2395 27.7073 68.9416 27.8955 68.694 27.9439L68.7324 28.1402ZM69.7314 27.495C70.105 27.1116 70.4719 26.6191 70.8328 26.0195L70.6614 25.9164C70.3061 26.5068 69.9482 26.9859 69.5881 27.3555L69.7314 27.495ZM70.8322 26.0204L71.0637 25.6449L70.8935 25.54L70.6619 25.9155L70.8322 26.0204ZM70.9978 25.6906L71.2425 25.6428L71.2042 25.4465L70.9594 25.4943L70.9978 25.6906ZM71.1375 25.4933L70.9651 25.781L71.1366 25.8838L71.3091 25.5961L71.1375 25.4933ZM71.2237 25.5446L71.2429 25.6427L71.2861 25.6343L71.309 25.5968L71.2237 25.5446ZM70.979 25.5924L70.896 25.5365L70.7612 25.7368L70.9982 25.6905L70.979 25.5924ZM71.2153 25.2414L71.2984 25.2973L71.3011 25.2928L71.2153 25.2414ZM73.2771 22.3997L73.2035 22.3319L73.2771 22.3997ZM75.5171 21.2508L75.4611 21.3339L75.4669 21.3373L75.5171 21.2508ZM75.5372 23.3047L75.6287 23.3451L75.6292 23.3439L75.5372 23.3047ZM74.0585 25.8801L73.9746 25.8258L73.8466 26.0234L74.0777 25.9783L74.0585 25.8801ZM74.3767 25.818L74.4671 25.8607L74.5515 25.6819L74.3575 25.7198L74.3767 25.818ZM73.9274 26.7695L74.0135 26.8214L74.0178 26.8122L73.9274 26.7695ZM72.2965 29.4762L72.3157 29.5744L72.3593 29.5659L72.3822 29.5279L72.2965 29.4762ZM70.2898 29.8682L70.217 29.7996L70.0038 30.026L70.3089 29.9664L70.2898 29.8682ZM72.2072 27.5882L72.2869 27.6486L72.2876 27.6477L72.2072 27.5882ZM73.93 25.0922L73.8457 25.0384L73.93 25.0922ZM75.133 22.9264L75.0425 22.8837L75.0418 22.8854L75.133 22.9264ZM73.9981 21.9286L74.0642 22.0035L73.9981 21.9286ZM72.7006 23.3507L72.7788 23.4131L72.7798 23.4117L72.7006 23.3507ZM71.4355 25.1983L71.5209 25.2505L71.5217 25.2491L71.4355 25.1983ZM76.4425 28.5902L76.3763 28.6653L76.3794 28.6678L76.4425 28.5902ZM76.2809 26.4623L76.3719 26.5037L76.3726 26.5022L76.2809 26.4623ZM77.2124 24.8576L77.2933 24.9164L77.2934 24.9163L77.2124 24.8576ZM78.3982 23.2541L78.3194 23.1924L78.3184 23.1938L78.3982 23.2541ZM79.3727 21.8696L79.2871 21.8178L79.287 21.818L79.3727 21.8696ZM78.1381 21.2724L78.2051 21.3467L78.2068 21.345L78.1381 21.2724ZM76.7279 22.7673L76.6512 22.7031L76.6504 22.7042L76.7279 22.7673ZM75.2569 24.7314L75.3391 24.7884L75.3391 24.7884L75.2569 24.7314ZM73.9274 26.7695L73.9465 26.8677L73.9898 26.8592L74.0127 26.8216L73.9274 26.7695ZM73.6582 26.8221L73.5721 26.7712L73.4588 26.9629L73.6773 26.9203L73.6582 26.8221ZM75.0271 24.7255L75.1085 24.7836L75.1093 24.7824L75.0271 24.7255ZM76.5375 22.7029L76.4606 22.6389L76.4598 22.6399L76.5375 22.7029ZM79.8774 20.5515L79.8292 20.6393L79.8338 20.6416L79.8774 20.5515ZM80.0587 22.6503L80.1479 22.6954L80.1487 22.6938L80.0587 22.6503ZM79.0687 24.2156L78.9888 24.1554L78.9878 24.1568L79.0687 24.2156ZM77.8537 25.7994L77.9312 25.8625L77.9314 25.8623L77.8537 25.7994ZM76.8302 27.1934L76.746 27.1395L76.7447 27.1415L76.8302 27.1934ZM76.741 28.5573L76.6849 28.6406L76.6928 28.645L76.741 28.5573ZM78.3286 27.8407L78.3956 27.9151L78.3971 27.9136L78.3286 27.8407ZM79.9161 26.0825L79.8385 26.0194L79.8378 26.0203L79.9161 26.0825ZM81.4664 23.8743L81.5522 23.9257L81.5537 23.923L81.4664 23.8743ZM81.6735 23.5035L81.6543 23.4054L81.6088 23.4143L81.5862 23.4548L81.6735 23.5035ZM81.9182 23.4557L82.004 23.5071L82.1194 23.3146L81.899 23.3576L81.9182 23.4557ZM81.7457 23.7435L81.66 23.6921L81.659 23.6937L81.7457 23.7435ZM80.1065 26.147L80.1842 26.2099L80.1843 26.2097L80.1065 26.147ZM78.4259 27.9488L78.3593 27.8742L78.3584 27.875L78.4259 27.9488ZM71.2045 25.4464L70.9598 25.4942L70.9982 25.6905L71.2429 25.6427L71.2045 25.4464ZM71.0619 25.6482L71.2982 25.2972L71.1323 25.1855L70.896 25.5365L71.0619 25.6482ZM71.3011 25.2928C71.9884 24.1459 72.6718 23.2046 73.3506 22.4674L73.2035 22.3319C72.513 23.0817 71.8218 24.0349 71.1295 25.19L71.3011 25.2928ZM73.3506 22.4674C74.0338 21.7256 74.5939 21.3297 75.033 21.244L74.9947 21.0477C74.4876 21.1467 73.8898 21.5868 73.2035 22.3319L73.3506 22.4674ZM75.033 21.244C75.1856 21.2141 75.3265 21.243 75.4612 21.3337L75.5729 21.1678C75.3956 21.0485 75.201 21.0074 74.9947 21.0477L75.033 21.244ZM75.4669 21.3373C75.5893 21.4083 75.6731 21.5305 75.7103 21.7212L75.9066 21.6828C75.861 21.4493 75.7505 21.2706 75.5673 21.1643L75.4669 21.3373ZM75.7103 21.7212C75.791 22.1343 75.708 22.6471 75.4451 23.2656L75.6292 23.3439C75.9001 22.7064 75.998 22.1507 75.9066 21.6828L75.7103 21.7212ZM75.4457 23.2644C75.1789 23.8685 74.6896 24.7216 73.9746 25.8258L74.1424 25.9345C74.8588 24.8282 75.3552 23.9643 75.6286 23.3451L75.4457 23.2644ZM74.0777 25.9783L74.3958 25.9161L74.3575 25.7198L74.0393 25.782L74.0777 25.9783ZM74.2862 25.7753L73.8369 26.7268L74.0178 26.8122L74.4671 25.8607L74.2862 25.7753ZM73.8417 26.7179L72.2109 29.4246L72.3822 29.5279L74.013 26.8211L73.8417 26.7179ZM72.2773 29.3781L70.2706 29.7701L70.3089 29.9664L72.3157 29.5744L72.2773 29.3781ZM70.3626 29.9368C71.0106 29.2489 71.652 28.4862 72.2869 27.6486L72.1275 27.5278C71.4965 28.3603 70.8596 29.1175 70.217 29.7996L70.3626 29.9368ZM72.2876 27.6477C72.9186 26.7947 73.4942 25.9608 74.0143 25.146L73.8457 25.0384C73.3283 25.849 72.7554 26.6791 72.1268 27.5288L72.2876 27.6477ZM74.0143 25.146C74.5348 24.3307 74.9384 23.6043 75.2242 22.9673L75.0418 22.8854C74.7611 23.5108 74.3628 24.2284 73.8457 25.0384L74.0143 25.146ZM75.2234 22.9691C75.3743 22.6495 75.4834 22.3779 75.5491 22.1554C75.6139 21.9361 75.6406 21.7518 75.6135 21.613L75.4172 21.6514C75.4347 21.741 75.42 21.8866 75.3573 22.0987C75.2956 22.3076 75.1912 22.5689 75.0426 22.8837L75.2234 22.9691ZM75.6135 21.613C75.5835 21.4592 75.5189 21.3334 75.4063 21.2575C75.2936 21.1817 75.1527 21.1692 74.9989 21.1993L75.0372 21.3956C75.1608 21.3714 75.2414 21.3877 75.2946 21.4234C75.3477 21.4592 75.3931 21.5278 75.4172 21.6514L75.6135 21.613ZM74.9989 21.1993C74.7097 21.2558 74.3525 21.4824 73.9319 21.8536L74.0642 22.0035C74.4816 21.6352 74.8044 21.4411 75.0372 21.3956L74.9989 21.1993ZM73.9319 21.8536C73.507 22.2286 73.0702 22.7077 72.6215 23.2896L72.7798 23.4117C73.223 22.837 73.6512 22.368 74.0642 22.0035L73.9319 21.8536ZM72.6225 23.2882C72.1702 23.8542 71.7458 24.474 71.3494 25.1476L71.5217 25.2491C71.9137 24.583 72.3328 23.9711 72.7788 23.4131L72.6225 23.2882ZM71.3502 25.1462L71.1384 25.4924L71.309 25.5968L71.5208 25.2505L71.3502 25.1462ZM77.0925 28.6663C76.8783 28.7081 76.6851 28.6587 76.5056 28.5127L76.3794 28.6678C76.6027 28.8495 76.8556 28.9163 77.1308 28.8626L77.0925 28.6663ZM76.5086 28.5152C76.3212 28.3501 76.2026 28.1413 76.1525 27.8847L75.9562 27.923C76.0145 28.2212 76.1546 28.4699 76.3764 28.6653L76.5086 28.5152ZM76.1525 27.8847C76.0715 27.4696 76.1411 27.0105 76.3719 26.5037L76.1899 26.4208C75.9466 26.9551 75.8652 27.4571 75.9562 27.923L76.1525 27.8847ZM76.3726 26.5022C76.6033 25.9728 76.91 25.4441 77.2933 24.9164L77.1315 24.7988C76.7407 25.3369 76.4264 25.8781 76.1893 26.4223L76.3726 26.5022ZM77.2934 24.9163C77.6932 24.3644 78.0881 23.8304 78.478 23.3143L78.3184 23.1938C77.9277 23.7109 77.532 24.246 77.1314 24.7989L77.2934 24.9163ZM78.4769 23.3157C78.8851 22.7939 79.2125 22.329 79.4583 21.9213L79.287 21.818C79.0467 22.2166 78.7244 22.6747 78.3194 23.1924L78.4769 23.3157ZM79.4582 21.9215C79.7164 21.4955 79.8389 21.1333 79.7834 20.8494L79.5871 20.8877C79.6272 21.0932 79.5413 21.3984 79.2871 21.8178L79.4582 21.9215ZM79.7834 20.8494C79.7559 20.7085 79.6914 20.5937 79.578 20.5273C79.4674 20.4624 79.3293 20.4551 79.1783 20.4846L79.2167 20.6809C79.343 20.6562 79.425 20.6694 79.4769 20.6998C79.5261 20.7286 79.5668 20.7839 79.5871 20.8877L79.7834 20.8494ZM79.1783 20.4846C78.871 20.5446 78.5 20.7925 78.0694 21.1997L78.2068 21.345C78.634 20.941 78.9693 20.7292 79.2167 20.6809L79.1783 20.4846ZM78.0712 21.1981C77.6346 21.5914 77.1613 22.0934 76.6512 22.7031L76.8046 22.8315C77.3106 22.2265 77.7775 21.7319 78.2051 21.3467L78.0712 21.1981ZM76.6504 22.7042C76.1568 23.3105 75.665 23.9673 75.1747 24.6744L75.3391 24.7884C75.8267 24.085 76.3155 23.4324 76.8055 22.8304L76.6504 22.7042ZM75.1747 24.6744C74.6979 25.3617 74.2536 26.0427 73.842 26.7175L74.0127 26.8216C74.4222 26.1504 74.8643 25.4727 75.3391 24.7884L75.1747 24.6744ZM73.9082 26.6714L73.639 26.724L73.6773 26.9203L73.9465 26.8677L73.9082 26.6714ZM73.7443 26.873C74.15 26.1863 74.6048 25.4899 75.1085 24.7836L74.9457 24.6674C74.4389 25.378 73.981 26.0793 73.5721 26.7712L73.7443 26.873ZM75.1093 24.7824C75.6101 24.0595 76.112 23.3873 76.6152 22.7658L76.4598 22.6399C75.9532 23.2657 75.4482 23.942 74.9449 24.6685L75.1093 24.7824ZM76.6144 22.7668C77.1333 22.1426 77.6213 21.6271 78.0781 21.2192L77.945 21.07C77.4788 21.4861 76.984 22.0094 76.4606 22.6389L76.6144 22.7668ZM78.0781 21.2192C78.536 20.8105 78.9133 20.5877 79.2125 20.5292L79.1741 20.333C78.8207 20.402 78.4101 20.6548 77.945 21.07L78.0781 21.2192ZM79.2125 20.5292C79.4152 20.4896 79.6196 20.5242 79.8293 20.6392L79.9255 20.4639C79.6799 20.3291 79.4282 20.2833 79.1741 20.333L79.2125 20.5292ZM79.8338 20.6416C80.0211 20.7322 80.1517 20.9165 80.2115 21.2231L80.4078 21.1847C80.3402 20.8387 80.1826 20.5881 79.9209 20.4615L79.8338 20.6416ZM80.2115 21.2231C80.2923 21.6368 80.2154 22.0967 79.9686 22.6067L80.1487 22.6938C80.4087 22.1564 80.4991 21.652 80.4078 21.1847L80.2115 21.2231ZM79.9694 22.6051C79.7159 23.1065 79.3893 23.6232 78.9888 24.1554L79.1486 24.2757C79.5549 23.7357 79.8882 23.2089 80.1479 22.6954L79.9694 22.6051ZM78.9878 24.1568C78.6017 24.6883 78.1978 25.2149 77.7759 25.7365L77.9314 25.8623C78.3554 25.338 78.7615 24.8087 79.1496 24.2743L78.9878 24.1568ZM77.7761 25.7363C77.3646 26.2419 77.021 26.7097 76.746 27.1395L76.9145 27.2473C77.1844 26.8254 77.5232 26.3638 77.9312 25.8625L77.7761 25.7363ZM76.7447 27.1415C76.4835 27.5725 76.3694 27.9573 76.4338 28.2871L76.6301 28.2487C76.5798 27.9911 76.6646 27.6596 76.9157 27.2452L76.7447 27.1415ZM76.4338 28.2871C76.4623 28.4326 76.5511 28.5501 76.6851 28.6403L76.7968 28.4744C76.6968 28.4071 76.6463 28.3315 76.6301 28.2487L76.4338 28.2871ZM76.6928 28.645C76.8277 28.719 76.9738 28.7408 77.1266 28.7109L77.0883 28.5146C76.9801 28.5358 76.8818 28.5206 76.7891 28.4697L76.6928 28.645ZM77.1266 28.7109C77.4656 28.6447 77.8902 28.3703 78.3955 27.915L78.2617 27.7665C77.7588 28.2195 77.3693 28.4598 77.0883 28.5146L77.1266 28.7109ZM78.3971 27.9136C78.9024 27.439 79.4348 26.8491 79.9944 26.1447L79.8378 26.0203C79.2825 26.7193 78.7567 27.3015 78.2601 27.7679L78.3971 27.9136ZM79.9936 26.1457C80.5703 25.4372 81.0898 24.6971 81.5522 23.9257L81.3806 23.8229C80.9233 24.586 80.4092 25.3182 79.8385 26.0194L79.9936 26.1457ZM81.5537 23.923L81.7608 23.5523L81.5862 23.4548L81.3791 23.8255L81.5537 23.923ZM81.6926 23.6017L81.9374 23.5539L81.899 23.3576L81.6543 23.4054L81.6926 23.6017ZM81.8324 23.4043L81.66 23.6921L81.8315 23.7949L82.004 23.5071L81.8324 23.4043ZM81.659 23.6937C81.1687 24.5478 80.6252 25.3446 80.0286 26.0842L80.1843 26.2097C80.7877 25.4616 81.3371 24.6561 81.8325 23.7933L81.659 23.6937ZM80.0288 26.084C79.4444 26.8054 78.8879 27.4018 78.3593 27.8742L78.4926 28.0233C79.0311 27.542 79.5949 26.9373 80.1842 26.2099L80.0288 26.084ZM78.3584 27.875C77.8443 28.3458 77.4233 28.6017 77.0925 28.6663L77.1308 28.8626C77.5179 28.7869 77.9731 28.4991 78.4935 28.0225L78.3584 27.875Z" fill="black" mask="url(#path-41-outside-1_2006_2)"/>
<defs>
<linearGradient id="paint0_linear_2006_2" x1="5.98389" y1="39.8232" x2="35.3916" y2="39.8232" gradientUnits="userSpaceOnUse">
<stop stop-color="#FBF332"/>
<stop offset="0.195" stop-color="#FF3333"/>
<stop offset="0.43" stop-color="#3239FB"/>
<stop offset="0.635" stop-color="#3239FB"/>
<stop offset="0.84" stop-color="#FF3333"/>
<stop offset="1" stop-color="#FBF332"/>
</linearGradient>
<clipPath id="clip0_2006_2">
<rect x="1" y="11" width="40" height="40" rx="4.8" fill="white"/>
</clipPath>
</defs>
</svg>
